  0
SECTION
  2
BLOCKS
  0
ENDSEC
  0
SECTION
  2
ENTITIES
  0
LINE
  8
0
 10
60
 20
36000
 11
-7500
 21
36000
  0
LINE
  8
0
 10
-7500
 20
36000
 11
-7500
 21
35000
  0
LINE
  8
0
 10
-7500
 20
35000
 11
60
 21
35000
  0
LINE
  8
0
 10
60
 20
35000
 11
60
 21
36000
  0
LINE
  8
0
 10
7500
 20
36000
 11
1260
 21
36000
  0
LINE
  8
0
 10
1260
 20
36000
 11
1260
 21
35000
  0
LINE
  8
0
 10
1260
 20
35000
 11
7500
 21
35000
  0
LINE
  8
0
 10
7500
 20
35000
 11
7500
 21
36000
  0
LINE
  8
0
 10
21000
 20
24000
 11
20980
 21
24000
  0
LINE
  8
0
 10
20980
 20
24000
 11
20980
 21
24981
  0
LINE
  8
0
 10
20980
 20
24981
 11
20960
 21
24981
  0
LINE
  8
0
 10
20960
 20
24981
 11
20960
 21
24000
  0
LINE
  8
0
 10
20960
 20
24000
 11
20920
 21
24000
  0
LINE
  8
0
 10
20920
 20
24000
 11
20920
 21
25000
  0
LINE
  8
0
 10
20920
 20
25000
 11
21000
 21
25000
  0
LINE
  8
0
 10
21000
 20
25000
 11
21000
 21
32000
  0
LINE
  8
0
 10
21000
 20
32000
 11
20000
 21
32000
  0
LINE
  8
0
 10
20000
 20
32000
 11
20000
 21
25000
  0
LINE
  8
0
 10
20000
 20
25000
 11
20080
 21
25000
  0
LINE
  8
0
 10
20080
 20
25000
 11
20080
 21
24000
  0
LINE
  8
0
 10
20080
 20
24000
 11
20040
 21
24000
  0
LINE
  8
0
 10
20040
 20
24000
 11
20040
 21
24981
  0
LINE
  8
0
 10
20040
 20
24981
 11
20020
 21
24981
  0
LINE
  8
0
 10
20020
 20
24981
 11
20020
 21
24000
  0
LINE
  8
0
 10
20020
 20
24000
 11
20000
 21
24000
  0
LINE
  8
0
 10
20000
 20
24000
 11
20000
 21
17000
  0
LINE
  8
0
 10
20000
 20
17000
 11
21000
 21
17000
  0
LINE
  8
0
 10
21000
 20
17000
 11
21000
 21
24000
  0
LINE
  8
0
 10
20720
 20
24000
 11
20720
 21
25000
  0
LINE
  8
0
 10
20720
 20
25000
 11
20880
 21
25000
  0
LINE
  8
0
 10
20880
 20
25000
 11
20880
 21
24000
  0
LINE
  8
0
 10
20880
 20
24000
 11
20840
 21
24000
  0
LINE
  8
0
 10
20840
 20
24000
 11
20840
 21
24981
  0
LINE
  8
0
 10
20840
 20
24981
 11
20820
 21
24981
  0
LINE
  8
0
 10
20820
 20
24981
 11
20820
 21
24000
  0
LINE
  8
0
 10
20820
 20
24000
 11
20780
 21
24000
  0
LINE
  8
0
 10
20780
 20
24000
 11
20780
 21
24981
  0
LINE
  8
0
 10
20780
 20
24981
 11
20760
 21
24981
  0
LINE
  8
0
 10
20760
 20
24981
 11
20760
 21
24000
  0
LINE
  8
0
 10
20760
 20
24000
 11
20720
 21
24000
  0
LINE
  8
0
 10
20520
 20
24000
 11
20520
 21
25000
  0
LINE
  8
0
 10
20520
 20
25000
 11
20680
 21
25000
  0
LINE
  8
0
 10
20680
 20
25000
 11
20680
 21
24000
  0
LINE
  8
0
 10
20680
 20
24000
 11
20640
 21
24000
  0
LINE
  8
0
 10
20640
 20
24000
 11
20640
 21
24981
  0
LINE
  8
0
 10
20640
 20
24981
 11
20620
 21
24981
  0
LINE
  8
0
 10
20620
 20
24981
 11
20620
 21
24000
  0
LINE
  8
0
 10
20620
 20
24000
 11
20580
 21
24000
  0
LINE
  8
0
 10
20580
 20
24000
 11
20580
 21
24981
  0
LINE
  8
0
 10
20580
 20
24981
 11
20560
 21
24981
  0
LINE
  8
0
 10
20560
 20
24981
 11
20560
 21
24000
  0
LINE
  8
0
 10
20560
 20
24000
 11
20520
 21
24000
  0
LINE
  8
0
 10
20120
 20
24000
 11
20120
 21
25000
  0
LINE
  8
0
 10
20120
 20
25000
 11
20280
 21
25000
  0
LINE
  8
0
 10
20280
 20
25000
 11
20280
 21
24000
  0
LINE
  8
0
 10
20280
 20
24000
 11
20240
 21
24000
  0
LINE
  8
0
 10
20240
 20
24000
 11
20240
 21
24981
  0
LINE
  8
0
 10
20240
 20
24981
 11
20220
 21
24981
  0
LINE
  8
0
 10
20220
 20
24981
 11
20220
 21
24000
  0
LINE
  8
0
 10
20220
 20
24000
 11
20180
 21
24000
  0
LINE
  8
0
 10
20180
 20
24000
 11
20180
 21
24981
  0
LINE
  8
0
 10
20180
 20
24981
 11
20160
 21
24981
  0
LINE
  8
0
 10
20160
 20
24981
 11
20160
 21
24000
  0
LINE
  8
0
 10
20160
 20
24000
 11
20120
 21
24000
  0
LINE
  8
0
 10
20320
 20
24000
 11
20320
 21
25000
  0
LINE
  8
0
 10
20320
 20
25000
 11
20480
 21
25000
  0
LINE
  8
0
 10
20480
 20
25000
 11
20480
 21
24000
  0
LINE
  8
0
 10
20480
 20
24000
 11
20440
 21
24000
  0
LINE
  8
0
 10
20440
 20
24000
 11
20440
 21
24981
  0
LINE
  8
0
 10
20440
 20
24981
 11
20420
 21
24981
  0
LINE
  8
0
 10
20420
 20
24981
 11
20420
 21
24000
  0
LINE
  8
0
 10
20420
 20
24000
 11
20380
 21
24000
  0
LINE
  8
0
 10
20380
 20
24000
 11
20380
 21
24981
  0
LINE
  8
0
 10
20380
 20
24981
 11
20360
 21
24981
  0
LINE
  8
0
 10
20360
 20
24981
 11
20360
 21
24000
  0
LINE
  8
0
 10
20360
 20
24000
 11
20320
 21
24000
  0
LINE
  8
0
 10
-19000
 20
24000
 11
-19020
 21
24000
  0
LINE
  8
0
 10
-19020
 20
24000
 11
-19020
 21
24981
  0
LINE
  8
0
 10
-19020
 20
24981
 11
-19040
 21
24981
  0
LINE
  8
0
 10
-19040
 20
24981
 11
-19040
 21
24000
  0
LINE
  8
0
 10
-19040
 20
24000
 11
-19080
 21
24000
  0
LINE
  8
0
 10
-19080
 20
24000
 11
-19080
 21
25000
  0
LINE
  8
0
 10
-19080
 20
25000
 11
-19000
 21
25000
  0
LINE
  8
0
 10
-19000
 20
25000
 11
-19000
 21
32000
  0
LINE
  8
0
 10
-19000
 20
32000
 11
-20000
 21
32000
  0
LINE
  8
0
 10
-20000
 20
32000
 11
-20000
 21
25000
  0
LINE
  8
0
 10
-20000
 20
25000
 11
-19920
 21
25000
  0
LINE
  8
0
 10
-19920
 20
25000
 11
-19920
 21
24000
  0
LINE
  8
0
 10
-19920
 20
24000
 11
-19960
 21
24000
  0
LINE
  8
0
 10
-19960
 20
24000
 11
-19960
 21
24981
  0
LINE
  8
0
 10
-19960
 20
24981
 11
-19980
 21
24981
  0
LINE
  8
0
 10
-19980
 20
24981
 11
-19980
 21
24000
  0
LINE
  8
0
 10
-19980
 20
24000
 11
-20000
 21
24000
  0
LINE
  8
0
 10
-20000
 20
24000
 11
-20000
 21
17000
  0
LINE
  8
0
 10
-20000
 20
17000
 11
-19000
 21
17000
  0
LINE
  8
0
 10
-19000
 20
17000
 11
-19000
 21
24000
  0
LINE
  8
0
 10
-19280
 20
24000
 11
-19280
 21
25000
  0
LINE
  8
0
 10
-19280
 20
25000
 11
-19120
 21
25000
  0
LINE
  8
0
 10
-19120
 20
25000
 11
-19120
 21
24000
  0
LINE
  8
0
 10
-19120
 20
24000
 11
-19160
 21
24000
  0
LINE
  8
0
 10
-19160
 20
24000
 11
-19160
 21
24981
  0
LINE
  8
0
 10
-19160
 20
24981
 11
-19180
 21
24981
  0
LINE
  8
0
 10
-19180
 20
24981
 11
-19180
 21
24000
  0
LINE
  8
0
 10
-19180
 20
24000
 11
-19220
 21
24000
  0
LINE
  8
0
 10
-19220
 20
24000
 11
-19220
 21
24981
  0
LINE
  8
0
 10
-19220
 20
24981
 11
-19240
 21
24981
  0
LINE
  8
0
 10
-19240
 20
24981
 11
-19240
 21
24000
  0
LINE
  8
0
 10
-19240
 20
24000
 11
-19280
 21
24000
  0
LINE
  8
0
 10
-19880
 20
24000
 11
-19880
 21
25000
  0
LINE
  8
0
 10
-19880
 20
25000
 11
-19720
 21
25000
  0
LINE
  8
0
 10
-19720
 20
25000
 11
-19720
 21
24000
  0
LINE
  8
0
 10
-19720
 20
24000
 11
-19760
 21
24000
  0
LINE
  8
0
 10
-19760
 20
24000
 11
-19760
 21
24981
  0
LINE
  8
0
 10
-19760
 20
24981
 11
-19780
 21
24981
  0
LINE
  8
0
 10
-19780
 20
24981
 11
-19780
 21
24000
  0
LINE
  8
0
 10
-19780
 20
24000
 11
-19820
 21
24000
  0
LINE
  8
0
 10
-19820
 20
24000
 11
-19820
 21
24981
  0
LINE
  8
0
 10
-19820
 20
24981
 11
-19840
 21
24981
  0
LINE
  8
0
 10
-19840
 20
24981
 11
-19840
 21
24000
  0
LINE
  8
0
 10
-19840
 20
24000
 11
-19880
 21
24000
  0
LINE
  8
0
 10
-19680
 20
24000
 11
-19680
 21
25000
  0
LINE
  8
0
 10
-19680
 20
25000
 11
-19520
 21
25000
  0
LINE
  8
0
 10
-19520
 20
25000
 11
-19520
 21
24000
  0
LINE
  8
0
 10
-19520
 20
24000
 11
-19560
 21
24000
  0
LINE
  8
0
 10
-19560
 20
24000
 11
-19560
 21
24981
  0
LINE
  8
0
 10
-19560
 20
24981
 11
-19580
 21
24981
  0
LINE
  8
0
 10
-19580
 20
24981
 11
-19580
 21
24000
  0
LINE
  8
0
 10
-19580
 20
24000
 11
-19620
 21
24000
  0
LINE
  8
0
 10
-19620
 20
24000
 11
-19620
 21
24981
  0
LINE
  8
0
 10
-19620
 20
24981
 11
-19640
 21
24981
  0
LINE
  8
0
 10
-19640
 20
24981
 11
-19640
 21
24000
  0
LINE
  8
0
 10
-19640
 20
24000
 11
-19680
 21
24000
  0
LINE
  8
0
 10
-19480
 20
24000
 11
-19480
 21
25000
  0
LINE
  8
0
 10
-19480
 20
25000
 11
-19320
 21
25000
  0
LINE
  8
0
 10
-19320
 20
25000
 11
-19320
 21
24000
  0
LINE
  8
0
 10
-19320
 20
24000
 11
-19360
 21
24000
  0
LINE
  8
0
 10
-19360
 20
24000
 11
-19360
 21
24981
  0
LINE
  8
0
 10
-19360
 20
24981
 11
-19380
 21
24981
  0
LINE
  8
0
 10
-19380
 20
24981
 11
-19380
 21
24000
  0
LINE
  8
0
 10
-19380
 20
24000
 11
-19420
 21
24000
  0
LINE
  8
0
 10
-19420
 20
24000
 11
-19420
 21
24981
  0
LINE
  8
0
 10
-19420
 20
24981
 11
-19440
 21
24981
  0
LINE
  8
0
 10
-19440
 20
24981
 11
-19440
 21
24000
  0
LINE
  8
0
 10
-19440
 20
24000
 11
-19480
 21
24000
  0
LINE
  8
0
 10
0
 20
25105
 11
1000
 21
25105
  0
LINE
  8
0
 10
1000
 20
25105
 11
1000
 21
25065
  0
LINE
  8
0
 10
1000
 20
25065
 11
19
 21
25065
  0
LINE
  8
0
 10
19
 20
25065
 11
19
 21
25045
  0
LINE
  8
0
 10
19
 20
25045
 11
1000
 21
25045
  0
LINE
  8
0
 10
1000
 20
25045
 11
1000
 21
25000
  0
LINE
  8
0
 10
1000
 20
25000
 11
8000
 21
25000
  0
LINE
  8
0
 10
8000
 20
25000
 11
8000
 21
26000
  0
LINE
  8
0
 10
8000
 20
26000
 11
1000
 21
26000
  0
LINE
  8
0
 10
1000
 20
26000
 11
1000
 21
25955
  0
LINE
  8
0
 10
1000
 20
25955
 11
19
 21
25955
  0
LINE
  8
0
 10
19
 20
25955
 11
19
 21
25935
  0
LINE
  8
0
 10
19
 20
25935
 11
1000
 21
25935
  0
LINE
  8
0
 10
1000
 20
25935
 11
1000
 21
25895
  0
LINE
  8
0
 10
1000
 20
25895
 11
0
 21
25895
  0
LINE
  8
0
 10
0
 20
25895
 11
0
 21
26000
  0
LINE
  8
0
 10
0
 20
26000
 11
-7000
 21
26000
  0
LINE
  8
0
 10
-7000
 20
26000
 11
-7000
 21
25000
  0
LINE
  8
0
 10
-7000
 20
25000
 11
0
 21
25000
  0
LINE
  8
0
 10
0
 20
25000
 11
0
 21
25105
  0
LINE
  8
0
 10
0
 20
25645
 11
0
 21
25855
  0
LINE
  8
0
 10
0
 20
25855
 11
1000
 21
25855
  0
LINE
  8
0
 10
1000
 20
25855
 11
1000
 21
25815
  0
LINE
  8
0
 10
1000
 20
25815
 11
19
 21
25815
  0
LINE
  8
0
 10
19
 20
25815
 11
19
 21
25795
  0
LINE
  8
0
 10
19
 20
25795
 11
1000
 21
25795
  0
LINE
  8
0
 10
1000
 20
25795
 11
1000
 21
25705
  0
LINE
  8
0
 10
1000
 20
25705
 11
19
 21
25705
  0
LINE
  8
0
 10
19
 20
25705
 11
19
 21
25685
  0
LINE
  8
0
 10
19
 20
25685
 11
1000
 21
25685
  0
LINE
  8
0
 10
1000
 20
25685
 11
1000
 21
25645
  0
LINE
  8
0
 10
1000
 20
25645
 11
0
 21
25645
  0
LINE
  8
0
 10
0
 20
25395
 11
0
 21
25605
  0
LINE
  8
0
 10
0
 20
25605
 11
1000
 21
25605
  0
LINE
  8
0
 10
1000
 20
25605
 11
1000
 21
25565
  0
LINE
  8
0
 10
1000
 20
25565
 11
19
 21
25565
  0
LINE
  8
0
 10
19
 20
25565
 11
19
 21
25545
  0
LINE
  8
0
 10
19
 20
25545
 11
1000
 21
25545
  0
LINE
  8
0
 10
1000
 20
25545
 11
1000
 21
25455
  0
LINE
  8
0
 10
1000
 20
25455
 11
19
 21
25455
  0
LINE
  8
0
 10
19
 20
25455
 11
19
 21
25435
  0
LINE
  8
0
 10
19
 20
25435
 11
1000
 21
25435
  0
LINE
  8
0
 10
1000
 20
25435
 11
1000
 21
25395
  0
LINE
  8
0
 10
1000
 20
25395
 11
0
 21
25395
  0
LINE
  8
0
 10
0
 20
25145
 11
0
 21
25355
  0
LINE
  8
0
 10
0
 20
25355
 11
1000
 21
25355
  0
LINE
  8
0
 10
1000
 20
25355
 11
1000
 21
25315
  0
LINE
  8
0
 10
1000
 20
25315
 11
19
 21
25315
  0
LINE
  8
0
 10
19
 20
25315
 11
19
 21
25295
  0
LINE
  8
0
 10
19
 20
25295
 11
1000
 21
25295
  0
LINE
  8
0
 10
1000
 20
25295
 11
1000
 21
25205
  0
LINE
  8
0
 10
1000
 20
25205
 11
19
 21
25205
  0
LINE
  8
0
 10
19
 20
25205
 11
19
 21
25185
  0
LINE
  8
0
 10
19
 20
25185
 11
1000
 21
25185
  0
LINE
  8
0
 10
1000
 20
25185
 11
1000
 21
25145
  0
LINE
  8
0
 10
1000
 20
25145
 11
0
 21
25145
  0
LINE
  8
0
 10
-498
 20
-4500
 11
-500
 21
-4500
  0
LINE
  8
0
 10
-500
 20
-4500
 11
-500
 21
-1000
  0
LINE
  8
0
 10
-500
 20
-1000
 11
-545
 21
-1000
  0
LINE
  8
0
 10
-545
 20
-1000
 11
-545
 21
-19
  0
LINE
  8
0
 10
-545
 20
-19
 11
-565
 21
-19
  0
LINE
  8
0
 10
-565
 20
-19
 11
-565
 21
-1000
  0
LINE
  8
0
 10
-565
 20
-1000
 11
-605
 21
-1000
  0
LINE
  8
0
 10
-605
 20
-1000
 11
-605
 21
0
  0
LINE
  8
0
 10
-605
 20
0
 11
-500
 21
0
  0
LINE
  8
0
 10
-500
 20
0
 11
-500
 21
3500
  0
LINE
  8
0
 10
-500
 20
3500
 11
-498
 21
3500
  0
LINE
  8
0
 10
-498
 20
3500
 11
-498
 21
16502
  0
LINE
  8
0
 10
-498
 20
16502
 11
-4496
 21
16502
  0
LINE
  8
0
 10
-4496
 20
16502
 11
-4496
 21
15502
  0
LINE
  8
0
 10
-4496
 20
15502
 11
-1498
 21
15502
  0
LINE
  8
0
 10
-1498
 20
15502
 11
-1498
 21
3500
  0
LINE
  8
0
 10
-1498
 20
3500
 11
-1500
 21
3500
  0
LINE
  8
0
 10
-1500
 20
3500
 11
-1500
 21
0
  0
LINE
  8
0
 10
-1500
 20
0
 11
-1395
 21
0
  0
LINE
  8
0
 10
-1395
 20
0
 11
-1395
 21
-1000
  0
LINE
  8
0
 10
-1395
 20
-1000
 11
-1435
 21
-1000
  0
LINE
  8
0
 10
-1435
 20
-1000
 11
-1435
 21
-19
  0
LINE
  8
0
 10
-1435
 20
-19
 11
-1455
 21
-19
  0
LINE
  8
0
 10
-1455
 20
-19
 11
-1455
 21
-1000
  0
LINE
  8
0
 10
-1455
 20
-1000
 11
-1500
 21
-1000
  0
LINE
  8
0
 10
-1500
 20
-1000
 11
-1500
 21
-4500
  0
LINE
  8
0
 10
-1500
 20
-4500
 11
-1498
 21
-4500
  0
LINE
  8
0
 10
-1498
 20
-4500
 11
-1498
 21
-16502
  0
LINE
  8
0
 10
-1498
 20
-16502
 11
-4496
 21
-16502
  0
LINE
  8
0
 10
-4496
 20
-16502
 11
-4496
 21
-17502
  0
LINE
  8
0
 10
-4496
 20
-17502
 11
-498
 21
-17502
  0
LINE
  8
0
 10
-498
 20
-17502
 11
-498
 21
-4500
  0
LINE
  8
0
 10
-1355
 20
-1000
 11
-1355
 21
0
  0
LINE
  8
0
 10
-1355
 20
0
 11
-1145
 21
0
  0
LINE
  8
0
 10
-1145
 20
0
 11
-1145
 21
-1000
  0
LINE
  8
0
 10
-1145
 20
-1000
 11
-1185
 21
-1000
  0
LINE
  8
0
 10
-1185
 20
-1000
 11
-1185
 21
-19
  0
LINE
  8
0
 10
-1185
 20
-19
 11
-1205
 21
-19
  0
LINE
  8
0
 10
-1205
 20
-19
 11
-1205
 21
-1000
  0
LINE
  8
0
 10
-1205
 20
-1000
 11
-1295
 21
-1000
  0
LINE
  8
0
 10
-1295
 20
-1000
 11
-1295
 21
-19
  0
LINE
  8
0
 10
-1295
 20
-19
 11
-1315
 21
-19
  0
LINE
  8
0
 10
-1315
 20
-19
 11
-1315
 21
-1000
  0
LINE
  8
0
 10
-1315
 20
-1000
 11
-1355
 21
-1000
  0
LINE
  8
0
 10
-855
 20
-1000
 11
-855
 21
0
  0
LINE
  8
0
 10
-855
 20
0
 11
-645
 21
0
  0
LINE
  8
0
 10
-645
 20
0
 11
-645
 21
-1000
  0
LINE
  8
0
 10
-645
 20
-1000
 11
-685
 21
-1000
  0
LINE
  8
0
 10
-685
 20
-1000
 11
-685
 21
-19
  0
LINE
  8
0
 10
-685
 20
-19
 11
-705
 21
-19
  0
LINE
  8
0
 10
-705
 20
-19
 11
-705
 21
-1000
  0
LINE
  8
0
 10
-705
 20
-1000
 11
-795
 21
-1000
  0
LINE
  8
0
 10
-795
 20
-1000
 11
-795
 21
-19
  0
LINE
  8
0
 10
-795
 20
-19
 11
-815
 21
-19
  0
LINE
  8
0
 10
-815
 20
-19
 11
-815
 21
-1000
  0
LINE
  8
0
 10
-815
 20
-1000
 11
-855
 21
-1000
  0
LINE
  8
0
 10
-1105
 20
-1000
 11
-1105
 21
0
  0
LINE
  8
0
 10
-1105
 20
0
 11
-895
 21
0
  0
LINE
  8
0
 10
-895
 20
0
 11
-895
 21
-1000
  0
LINE
  8
0
 10
-895
 20
-1000
 11
-935
 21
-1000
  0
LINE
  8
0
 10
-935
 20
-1000
 11
-935
 21
-19
  0
LINE
  8
0
 10
-935
 20
-19
 11
-955
 21
-19
  0
LINE
  8
0
 10
-955
 20
-19
 11
-955
 21
-1000
  0
LINE
  8
0
 10
-955
 20
-1000
 11
-1045
 21
-1000
  0
LINE
  8
0
 10
-1045
 20
-1000
 11
-1045
 21
-19
  0
LINE
  8
0
 10
-1045
 20
-19
 11
-1065
 21
-19
  0
LINE
  8
0
 10
-1065
 20
-19
 11
-1065
 21
-1000
  0
LINE
  8
0
 10
-1065
 20
-1000
 11
-1105
 21
-1000
  0
LINE
  8
0
 10
3996
 20
-16502
 11
998
 21
-16502
  0
LINE
  8
0
 10
998
 20
-16502
 11
998
 21
-4500
  0
LINE
  8
0
 10
998
 20
-4500
 11
1000
 21
-4500
  0
LINE
  8
0
 10
1000
 20
-4500
 11
1000
 21
-1000
  0
LINE
  8
0
 10
1000
 20
-1000
 11
955
 21
-1000
  0
LINE
  8
0
 10
955
 20
-1000
 11
955
 21
-19
  0
LINE
  8
0
 10
955
 20
-19
 11
935
 21
-19
  0
LINE
  8
0
 10
935
 20
-19
 11
935
 21
-1000
  0
LINE
  8
0
 10
935
 20
-1000
 11
895
 21
-1000
  0
LINE
  8
0
 10
895
 20
-1000
 11
895
 21
0
  0
LINE
  8
0
 10
895
 20
0
 11
1000
 21
0
  0
LINE
  8
0
 10
1000
 20
0
 11
1000
 21
3500
  0
LINE
  8
0
 10
1000
 20
3500
 11
998
 21
3500
  0
LINE
  8
0
 10
998
 20
3500
 11
998
 21
15502
  0
LINE
  8
0
 10
998
 20
15502
 11
3996
 21
15502
  0
LINE
  8
0
 10
3996
 20
15502
 11
3996
 21
16502
  0
LINE
  8
0
 10
3996
 20
16502
 11
-2
 21
16502
  0
LINE
  8
0
 10
-2
 20
16502
 11
-2
 21
3500
  0
LINE
  8
0
 10
-2
 20
3500
 11
0
 21
3500
  0
LINE
  8
0
 10
0
 20
3500
 11
0
 21
0
  0
LINE
  8
0
 10
0
 20
0
 11
105
 21
0
  0
LINE
  8
0
 10
105
 20
0
 11
105
 21
-1000
  0
LINE
  8
0
 10
105
 20
-1000
 11
65
 21
-1000
  0
LINE
  8
0
 10
65
 20
-1000
 11
65
 21
-19
  0
LINE
  8
0
 10
65
 20
-19
 11
45
 21
-19
  0
LINE
  8
0
 10
45
 20
-19
 11
45
 21
-1000
  0
LINE
  8
0
 10
45
 20
-1000
 11
0
 21
-1000
  0
LINE
  8
0
 10
0
 20
-1000
 11
0
 21
-4500
  0
LINE
  8
0
 10
0
 20
-4500
 11
-2
 21
-4500
  0
LINE
  8
0
 10
-2
 20
-4500
 11
-2
 21
-17502
  0
LINE
  8
0
 10
-2
 20
-17502
 11
3996
 21
-17502
  0
LINE
  8
0
 10
3996
 20
-17502
 11
3996
 21
-16502
  0
LINE
  8
0
 10
145
 20
-1000
 11
145
 21
0
  0
LINE
  8
0
 10
145
 20
0
 11
355
 21
0
  0
LINE
  8
0
 10
355
 20
0
 11
355
 21
-1000
  0
LINE
  8
0
 10
355
 20
-1000
 11
315
 21
-1000
  0
LINE
  8
0
 10
315
 20
-1000
 11
315
 21
-19
  0
LINE
  8
0
 10
315
 20
-19
 11
295
 21
-19
  0
LINE
  8
0
 10
295
 20
-19
 11
295
 21
-1000
  0
LINE
  8
0
 10
295
 20
-1000
 11
205
 21
-1000
  0
LINE
  8
0
 10
205
 20
-1000
 11
205
 21
-19
  0
LINE
  8
0
 10
205
 20
-19
 11
185
 21
-19
  0
LINE
  8
0
 10
185
 20
-19
 11
185
 21
-1000
  0
LINE
  8
0
 10
185
 20
-1000
 11
145
 21
-1000
  0
LINE
  8
0
 10
395
 20
-1000
 11
395
 21
0
  0
LINE
  8
0
 10
395
 20
0
 11
605
 21
0
  0
LINE
  8
0
 10
605
 20
0
 11
605
 21
-1000
  0
LINE
  8
0
 10
605
 20
-1000
 11
565
 21
-1000
  0
LINE
  8
0
 10
565
 20
-1000
 11
565
 21
-19
  0
LINE
  8
0
 10
565
 20
-19
 11
545
 21
-19
  0
LINE
  8
0
 10
545
 20
-19
 11
545
 21
-1000
  0
LINE
  8
0
 10
545
 20
-1000
 11
455
 21
-1000
  0
LINE
  8
0
 10
455
 20
-1000
 11
455
 21
-19
  0
LINE
  8
0
 10
455
 20
-19
 11
435
 21
-19
  0
LINE
  8
0
 10
435
 20
-19
 11
435
 21
-1000
  0
LINE
  8
0
 10
435
 20
-1000
 11
395
 21
-1000
  0
LINE
  8
0
 10
645
 20
-1000
 11
645
 21
0
  0
LINE
  8
0
 10
645
 20
0
 11
855
 21
0
  0
LINE
  8
0
 10
855
 20
0
 11
855
 21
-1000
  0
LINE
  8
0
 10
855
 20
-1000
 11
815
 21
-1000
  0
LINE
  8
0
 10
815
 20
-1000
 11
815
 21
-19
  0
LINE
  8
0
 10
815
 20
-19
 11
795
 21
-19
  0
LINE
  8
0
 10
795
 20
-19
 11
795
 21
-1000
  0
LINE
  8
0
 10
795
 20
-1000
 11
705
 21
-1000
  0
LINE
  8
0
 10
705
 20
-1000
 11
705
 21
-19
  0
LINE
  8
0
 10
705
 20
-19
 11
685
 21
-19
  0
LINE
  8
0
 10
685
 20
-19
 11
685
 21
-1000
  0
LINE
  8
0
 10
685
 20
-1000
 11
645
 21
-1000
  0
LINE
  8
0
 10
-1999
 20
-4500
 11
-2000
 21
-4500
  0
LINE
  8
0
 10
-2000
 20
-4500
 11
-2000
 21
-1000
  0
LINE
  8
0
 10
-2000
 20
-1000
 11
-2045
 21
-1000
  0
LINE
  8
0
 10
-2045
 20
-1000
 11
-2045
 21
-19
  0
LINE
  8
0
 10
-2045
 20
-19
 11
-2065
 21
-19
  0
LINE
  8
0
 10
-2065
 20
-19
 11
-2065
 21
-1000
  0
LINE
  8
0
 10
-2065
 20
-1000
 11
-2105
 21
-1000
  0
LINE
  8
0
 10
-2105
 20
-1000
 11
-2105
 21
0
  0
LINE
  8
0
 10
-2105
 20
0
 11
-2000
 21
0
  0
LINE
  8
0
 10
-2000
 20
0
 11
-2000
 21
3500
  0
LINE
  8
0
 10
-2000
 20
3500
 11
-1999
 21
3500
  0
LINE
  8
0
 10
-1999
 20
3500
 11
-1999
 21
10501
  0
LINE
  8
0
 10
-1999
 20
10501
 11
-11998
 21
10501
  0
LINE
  8
0
 10
-11998
 20
10501
 11
-11998
 21
9501
  0
LINE
  8
0
 10
-11998
 20
9501
 11
-2999
 21
9501
  0
LINE
  8
0
 10
-2999
 20
9501
 11
-2999
 21
3500
  0
LINE
  8
0
 10
-2999
 20
3500
 11
-3000
 21
3500
  0
LINE
  8
0
 10
-3000
 20
3500
 11
-3000
 21
0
  0
LINE
  8
0
 10
-3000
 20
0
 11
-2895
 21
0
  0
LINE
  8
0
 10
-2895
 20
0
 11
-2895
 21
-1000
  0
LINE
  8
0
 10
-2895
 20
-1000
 11
-2935
 21
-1000
  0
LINE
  8
0
 10
-2935
 20
-1000
 11
-2935
 21
-19
  0
LINE
  8
0
 10
-2935
 20
-19
 11
-2955
 21
-19
  0
LINE
  8
0
 10
-2955
 20
-19
 11
-2955
 21
-1000
  0
LINE
  8
0
 10
-2955
 20
-1000
 11
-3000
 21
-1000
  0
LINE
  8
0
 10
-3000
 20
-1000
 11
-3000
 21
-4500
  0
LINE
  8
0
 10
-3000
 20
-4500
 11
-2999
 21
-4500
  0
LINE
  8
0
 10
-2999
 20
-4500
 11
-2999
 21
-10501
  0
LINE
  8
0
 10
-2999
 20
-10501
 11
-11998
 21
-10501
  0
LINE
  8
0
 10
-11998
 20
-10501
 11
-11998
 21
-11501
  0
LINE
  8
0
 10
-11998
 20
-11501
 11
-1999
 21
-11501
  0
LINE
  8
0
 10
-1999
 20
-11501
 11
-1999
 21
-4500
  0
LINE
  8
0
 10
-2355
 20
-1000
 11
-2355
 21
0
  0
LINE
  8
0
 10
-2355
 20
0
 11
-2145
 21
0
  0
LINE
  8
0
 10
-2145
 20
0
 11
-2145
 21
-1000
  0
LINE
  8
0
 10
-2145
 20
-1000
 11
-2185
 21
-1000
  0
LINE
  8
0
 10
-2185
 20
-1000
 11
-2185
 21
-19
  0
LINE
  8
0
 10
-2185
 20
-19
 11
-2205
 21
-19
  0
LINE
  8
0
 10
-2205
 20
-19
 11
-2205
 21
-1000
  0
LINE
  8
0
 10
-2205
 20
-1000
 11
-2295
 21
-1000
  0
LINE
  8
0
 10
-2295
 20
-1000
 11
-2295
 21
-19
  0
LINE
  8
0
 10
-2295
 20
-19
 11
-2315
 21
-19
  0
LINE
  8
0
 10
-2315
 20
-19
 11
-2315
 21
-1000
  0
LINE
  8
0
 10
-2315
 20
-1000
 11
-2355
 21
-1000
  0
LINE
  8
0
 10
-2855
 20
-1000
 11
-2855
 21
0
  0
LINE
  8
0
 10
-2855
 20
0
 11
-2645
 21
0
  0
LINE
  8
0
 10
-2645
 20
0
 11
-2645
 21
-1000
  0
LINE
  8
0
 10
-2645
 20
-1000
 11
-2685
 21
-1000
  0
LINE
  8
0
 10
-2685
 20
-1000
 11
-2685
 21
-19
  0
LINE
  8
0
 10
-2685
 20
-19
 11
-2705
 21
-19
  0
LINE
  8
0
 10
-2705
 20
-19
 11
-2705
 21
-1000
  0
LINE
  8
0
 10
-2705
 20
-1000
 11
-2795
 21
-1000
  0
LINE
  8
0
 10
-2795
 20
-1000
 11
-2795
 21
-19
  0
LINE
  8
0
 10
-2795
 20
-19
 11
-2815
 21
-19
  0
LINE
  8
0
 10
-2815
 20
-19
 11
-2815
 21
-1000
  0
LINE
  8
0
 10
-2815
 20
-1000
 11
-2855
 21
-1000
  0
LINE
  8
0
 10
-2605
 20
-1000
 11
-2605
 21
0
  0
LINE
  8
0
 10
-2605
 20
0
 11
-2395
 21
0
  0
LINE
  8
0
 10
-2395
 20
0
 11
-2395
 21
-1000
  0
LINE
  8
0
 10
-2395
 20
-1000
 11
-2435
 21
-1000
  0
LINE
  8
0
 10
-2435
 20
-1000
 11
-2435
 21
-19
  0
LINE
  8
0
 10
-2435
 20
-19
 11
-2455
 21
-19
  0
LINE
  8
0
 10
-2455
 20
-19
 11
-2455
 21
-1000
  0
LINE
  8
0
 10
-2455
 20
-1000
 11
-2545
 21
-1000
  0
LINE
  8
0
 10
-2545
 20
-1000
 11
-2545
 21
-19
  0
LINE
  8
0
 10
-2545
 20
-19
 11
-2565
 21
-19
  0
LINE
  8
0
 10
-2565
 20
-19
 11
-2565
 21
-1000
  0
LINE
  8
0
 10
-2565
 20
-1000
 11
-2605
 21
-1000
  0
LINE
  8
0
 10
11498
 20
-10501
 11
2499
 21
-10501
  0
LINE
  8
0
 10
2499
 20
-10501
 11
2499
 21
-4500
  0
LINE
  8
0
 10
2499
 20
-4500
 11
2500
 21
-4500
  0
LINE
  8
0
 10
2500
 20
-4500
 11
2500
 21
-1000
  0
LINE
  8
0
 10
2500
 20
-1000
 11
2455
 21
-1000
  0
LINE
  8
0
 10
2455
 20
-1000
 11
2455
 21
-19
  0
LINE
  8
0
 10
2455
 20
-19
 11
2435
 21
-19
  0
LINE
  8
0
 10
2435
 20
-19
 11
2435
 21
-1000
  0
LINE
  8
0
 10
2435
 20
-1000
 11
2395
 21
-1000
  0
LINE
  8
0
 10
2395
 20
-1000
 11
2395
 21
0
  0
LINE
  8
0
 10
2395
 20
0
 11
2500
 21
0
  0
LINE
  8
0
 10
2500
 20
0
 11
2500
 21
3500
  0
LINE
  8
0
 10
2500
 20
3500
 11
2499
 21
3500
  0
LINE
  8
0
 10
2499
 20
3500
 11
2499
 21
9501
  0
LINE
  8
0
 10
2499
 20
9501
 11
11498
 21
9501
  0
LINE
  8
0
 10
11498
 20
9501
 11
11498
 21
10501
  0
LINE
  8
0
 10
11498
 20
10501
 11
1499
 21
10501
  0
LINE
  8
0
 10
1499
 20
10501
 11
1499
 21
3500
  0
LINE
  8
0
 10
1499
 20
3500
 11
1500
 21
3500
  0
LINE
  8
0
 10
1500
 20
3500
 11
1500
 21
0
  0
LINE
  8
0
 10
1500
 20
0
 11
1605
 21
0
  0
LINE
  8
0
 10
1605
 20
0
 11
1605
 21
-1000
  0
LINE
  8
0
 10
1605
 20
-1000
 11
1565
 21
-1000
  0
LINE
  8
0
 10
1565
 20
-1000
 11
1565
 21
-19
  0
LINE
  8
0
 10
1565
 20
-19
 11
1545
 21
-19
  0
LINE
  8
0
 10
1545
 20
-19
 11
1545
 21
-1000
  0
LINE
  8
0
 10
1545
 20
-1000
 11
1500
 21
-1000
  0
LINE
  8
0
 10
1500
 20
-1000
 11
1500
 21
-4500
  0
LINE
  8
0
 10
1500
 20
-4500
 11
1499
 21
-4500
  0
LINE
  8
0
 10
1499
 20
-4500
 11
1499
 21
-11501
  0
LINE
  8
0
 10
1499
 20
-11501
 11
11498
 21
-11501
  0
LINE
  8
0
 10
11498
 20
-11501
 11
11498
 21
-10501
  0
LINE
  8
0
 10
1645
 20
-1000
 11
1645
 21
0
  0
LINE
  8
0
 10
1645
 20
0
 11
1855
 21
0
  0
LINE
  8
0
 10
1855
 20
0
 11
1855
 21
-1000
  0
LINE
  8
0
 10
1855
 20
-1000
 11
1815
 21
-1000
  0
LINE
  8
0
 10
1815
 20
-1000
 11
1815
 21
-19
  0
LINE
  8
0
 10
1815
 20
-19
 11
1795
 21
-19
  0
LINE
  8
0
 10
1795
 20
-19
 11
1795
 21
-1000
  0
LINE
  8
0
 10
1795
 20
-1000
 11
1705
 21
-1000
  0
LINE
  8
0
 10
1705
 20
-1000
 11
1705
 21
-19
  0
LINE
  8
0
 10
1705
 20
-19
 11
1685
 21
-19
  0
LINE
  8
0
 10
1685
 20
-19
 11
1685
 21
-1000
  0
LINE
  8
0
 10
1685
 20
-1000
 11
1645
 21
-1000
  0
LINE
  8
0
 10
2145
 20
-1000
 11
2145
 21
0
  0
LINE
  8
0
 10
2145
 20
0
 11
2355
 21
0
  0
LINE
  8
0
 10
2355
 20
0
 11
2355
 21
-1000
  0
LINE
  8
0
 10
2355
 20
-1000
 11
2315
 21
-1000
  0
LINE
  8
0
 10
2315
 20
-1000
 11
2315
 21
-19
  0
LINE
  8
0
 10
2315
 20
-19
 11
2295
 21
-19
  0
LINE
  8
0
 10
2295
 20
-19
 11
2295
 21
-1000
  0
LINE
  8
0
 10
2295
 20
-1000
 11
2205
 21
-1000
  0
LINE
  8
0
 10
2205
 20
-1000
 11
2205
 21
-19
  0
LINE
  8
0
 10
2205
 20
-19
 11
2185
 21
-19
  0
LINE
  8
0
 10
2185
 20
-19
 11
2185
 21
-1000
  0
LINE
  8
0
 10
2185
 20
-1000
 11
2145
 21
-1000
  0
LINE
  8
0
 10
1895
 20
-1000
 11
1895
 21
0
  0
LINE
  8
0
 10
1895
 20
0
 11
2105
 21
0
  0
LINE
  8
0
 10
2105
 20
0
 11
2105
 21
-1000
  0
LINE
  8
0
 10
2105
 20
-1000
 11
2065
 21
-1000
  0
LINE
  8
0
 10
2065
 20
-1000
 11
2065
 21
-19
  0
LINE
  8
0
 10
2065
 20
-19
 11
2045
 21
-19
  0
LINE
  8
0
 10
2045
 20
-19
 11
2045
 21
-1000
  0
LINE
  8
0
 10
2045
 20
-1000
 11
1955
 21
-1000
  0
LINE
  8
0
 10
1955
 20
-1000
 11
1955
 21
-19
  0
LINE
  8
0
 10
1955
 20
-19
 11
1935
 21
-19
  0
LINE
  8
0
 10
1935
 20
-19
 11
1935
 21
-1000
  0
LINE
  8
0
 10
1935
 20
-1000
 11
1895
 21
-1000
  0
LINE
  8
0
 10
31000
 20
-1000
 11
30955
 21
-1000
  0
LINE
  8
0
 10
30955
 20
-1000
 11
30955
 21
-19
  0
LINE
  8
0
 10
30955
 20
-19
 11
30935
 21
-19
  0
LINE
  8
0
 10
30935
 20
-19
 11
30935
 21
-1000
  0
LINE
  8
0
 10
30935
 20
-1000
 11
30895
 21
-1000
  0
LINE
  8
0
 10
30895
 20
-1000
 11
30895
 21
0
  0
LINE
  8
0
 10
30895
 20
0
 11
31000
 21
0
  0
LINE
  8
0
 10
31000
 20
0
 11
31000
 21
7000
  0
LINE
  8
0
 10
31000
 20
7000
 11
30000
 21
7000
  0
LINE
  8
0
 10
30000
 20
7000
 11
30000
 21
0
  0
LINE
  8
0
 10
30000
 20
0
 11
30105
 21
0
  0
LINE
  8
0
 10
30105
 20
0
 11
30105
 21
-1000
  0
LINE
  8
0
 10
30105
 20
-1000
 11
30065
 21
-1000
  0
LINE
  8
0
 10
30065
 20
-1000
 11
30065
 21
-19
  0
LINE
  8
0
 10
30065
 20
-19
 11
30045
 21
-19
  0
LINE
  8
0
 10
30045
 20
-19
 11
30045
 21
-1000
  0
LINE
  8
0
 10
30045
 20
-1000
 11
30000
 21
-1000
  0
LINE
  8
0
 10
30000
 20
-1000
 11
30000
 21
-8000
  0
LINE
  8
0
 10
30000
 20
-8000
 11
31000
 21
-8000
  0
LINE
  8
0
 10
31000
 20
-8000
 11
31000
 21
-1000
  0
LINE
  8
0
 10
30645
 20
-1000
 11
30645
 21
0
  0
LINE
  8
0
 10
30645
 20
0
 11
30855
 21
0
  0
LINE
  8
0
 10
30855
 20
0
 11
30855
 21
-1000
  0
LINE
  8
0
 10
30855
 20
-1000
 11
30815
 21
-1000
  0
LINE
  8
0
 10
30815
 20
-1000
 11
30815
 21
-19
  0
LINE
  8
0
 10
30815
 20
-19
 11
30795
 21
-19
  0
LINE
  8
0
 10
30795
 20
-19
 11
30795
 21
-1000
  0
LINE
  8
0
 10
30795
 20
-1000
 11
30705
 21
-1000
  0
LINE
  8
0
 10
30705
 20
-1000
 11
30705
 21
-19
  0
LINE
  8
0
 10
30705
 20
-19
 11
30685
 21
-19
  0
LINE
  8
0
 10
30685
 20
-19
 11
30685
 21
-1000
  0
LINE
  8
0
 10
30685
 20
-1000
 11
30645
 21
-1000
  0
LINE
  8
0
 10
30395
 20
-1000
 11
30395
 21
0
  0
LINE
  8
0
 10
30395
 20
0
 11
30605
 21
0
  0
LINE
  8
0
 10
30605
 20
0
 11
30605
 21
-1000
  0
LINE
  8
0
 10
30605
 20
-1000
 11
30565
 21
-1000
  0
LINE
  8
0
 10
30565
 20
-1000
 11
30565
 21
-19
  0
LINE
  8
0
 10
30565
 20
-19
 11
30545
 21
-19
  0
LINE
  8
0
 10
30545
 20
-19
 11
30545
 21
-1000
  0
LINE
  8
0
 10
30545
 20
-1000
 11
30455
 21
-1000
  0
LINE
  8
0
 10
30455
 20
-1000
 11
30455
 21
-19
  0
LINE
  8
0
 10
30455
 20
-19
 11
30435
 21
-19
  0
LINE
  8
0
 10
30435
 20
-19
 11
30435
 21
-1000
  0
LINE
  8
0
 10
30435
 20
-1000
 11
30395
 21
-1000
  0
LINE
  8
0
 10
30145
 20
-1000
 11
30145
 21
0
  0
LINE
  8
0
 10
30145
 20
0
 11
30355
 21
0
  0
LINE
  8
0
 10
30355
 20
0
 11
30355
 21
-1000
  0
LINE
  8
0
 10
30355
 20
-1000
 11
30315
 21
-1000
  0
LINE
  8
0
 10
30315
 20
-1000
 11
30315
 21
-19
  0
LINE
  8
0
 10
30315
 20
-19
 11
30295
 21
-19
  0
LINE
  8
0
 10
30295
 20
-19
 11
30295
 21
-1000
  0
LINE
  8
0
 10
30295
 20
-1000
 11
30205
 21
-1000
  0
LINE
  8
0
 10
30205
 20
-1000
 11
30205
 21
-19
  0
LINE
  8
0
 10
30205
 20
-19
 11
30185
 21
-19
  0
LINE
  8
0
 10
30185
 20
-19
 11
30185
 21
-1000
  0
LINE
  8
0
 10
30185
 20
-1000
 11
30145
 21
-1000
  0
LINE
  8
0
 10
-29000
 20
-1000
 11
-29045
 21
-1000
  0
LINE
  8
0
 10
-29045
 20
-1000
 11
-29045
 21
-19
  0
LINE
  8
0
 10
-29045
 20
-19
 11
-29065
 21
-19
  0
LINE
  8
0
 10
-29065
 20
-19
 11
-29065
 21
-1000
  0
LINE
  8
0
 10
-29065
 20
-1000
 11
-29105
 21
-1000
  0
LINE
  8
0
 10
-29105
 20
-1000
 11
-29105
 21
0
  0
LINE
  8
0
 10
-29105
 20
0
 11
-29000
 21
0
  0
LINE
  8
0
 10
-29000
 20
0
 11
-29000
 21
7000
  0
LINE
  8
0
 10
-29000
 20
7000
 11
-30000
 21
7000
  0
LINE
  8
0
 10
-30000
 20
7000
 11
-30000
 21
0
  0
LINE
  8
0
 10
-30000
 20
0
 11
-29895
 21
0
  0
LINE
  8
0
 10
-29895
 20
0
 11
-29895
 21
-1000
  0
LINE
  8
0
 10
-29895
 20
-1000
 11
-29935
 21
-1000
  0
LINE
  8
0
 10
-29935
 20
-1000
 11
-29935
 21
-19
  0
LINE
  8
0
 10
-29935
 20
-19
 11
-29955
 21
-19
  0
LINE
  8
0
 10
-29955
 20
-19
 11
-29955
 21
-1000
  0
LINE
  8
0
 10
-29955
 20
-1000
 11
-30000
 21
-1000
  0
LINE
  8
0
 10
-30000
 20
-1000
 11
-30000
 21
-8000
  0
LINE
  8
0
 10
-30000
 20
-8000
 11
-29000
 21
-8000
  0
LINE
  8
0
 10
-29000
 20
-8000
 11
-29000
 21
-1000
  0
LINE
  8
0
 10
-29355
 20
-1000
 11
-29355
 21
0
  0
LINE
  8
0
 10
-29355
 20
0
 11
-29145
 21
0
  0
LINE
  8
0
 10
-29145
 20
0
 11
-29145
 21
-1000
  0
LINE
  8
0
 10
-29145
 20
-1000
 11
-29185
 21
-1000
  0
LINE
  8
0
 10
-29185
 20
-1000
 11
-29185
 21
-19
  0
LINE
  8
0
 10
-29185
 20
-19
 11
-29205
 21
-19
  0
LINE
  8
0
 10
-29205
 20
-19
 11
-29205
 21
-1000
  0
LINE
  8
0
 10
-29205
 20
-1000
 11
-29295
 21
-1000
  0
LINE
  8
0
 10
-29295
 20
-1000
 11
-29295
 21
-19
  0
LINE
  8
0
 10
-29295
 20
-19
 11
-29315
 21
-19
  0
LINE
  8
0
 10
-29315
 20
-19
 11
-29315
 21
-1000
  0
LINE
  8
0
 10
-29315
 20
-1000
 11
-29355
 21
-1000
  0
LINE
  8
0
 10
-29605
 20
-1000
 11
-29605
 21
0
  0
LINE
  8
0
 10
-29605
 20
0
 11
-29395
 21
0
  0
LINE
  8
0
 10
-29395
 20
0
 11
-29395
 21
-1000
  0
LINE
  8
0
 10
-29395
 20
-1000
 11
-29435
 21
-1000
  0
LINE
  8
0
 10
-29435
 20
-1000
 11
-29435
 21
-19
  0
LINE
  8
0
 10
-29435
 20
-19
 11
-29455
 21
-19
  0
LINE
  8
0
 10
-29455
 20
-19
 11
-29455
 21
-1000
  0
LINE
  8
0
 10
-29455
 20
-1000
 11
-29545
 21
-1000
  0
LINE
  8
0
 10
-29545
 20
-1000
 11
-29545
 21
-19
  0
LINE
  8
0
 10
-29545
 20
-19
 11
-29565
 21
-19
  0
LINE
  8
0
 10
-29565
 20
-19
 11
-29565
 21
-1000
  0
LINE
  8
0
 10
-29565
 20
-1000
 11
-29605
 21
-1000
  0
LINE
  8
0
 10
-29855
 20
-1000
 11
-29855
 21
0
  0
LINE
  8
0
 10
-29855
 20
0
 11
-29645
 21
0
  0
LINE
  8
0
 10
-29645
 20
0
 11
-29645
 21
-1000
  0
LINE
  8
0
 10
-29645
 20
-1000
 11
-29685
 21
-1000
  0
LINE
  8
0
 10
-29685
 20
-1000
 11
-29685
 21
-19
  0
LINE
  8
0
 10
-29685
 20
-19
 11
-29705
 21
-19
  0
LINE
  8
0
 10
-29705
 20
-19
 11
-29705
 21
-1000
  0
LINE
  8
0
 10
-29705
 20
-1000
 11
-29795
 21
-1000
  0
LINE
  8
0
 10
-29795
 20
-1000
 11
-29795
 21
-19
  0
LINE
  8
0
 10
-29795
 20
-19
 11
-29815
 21
-19
  0
LINE
  8
0
 10
-29815
 20
-19
 11
-29815
 21
-1000
  0
LINE
  8
0
 10
-29815
 20
-1000
 11
-29855
 21
-1000
  0
LINE
  8
0
 10
19000
 20
-4500
 11
4000
 21
-4500
  0
LINE
  8
0
 10
4000
 20
-4500
 11
4000
 21
-1000
  0
LINE
  8
0
 10
4000
 20
-1000
 11
3955
 21
-1000
  0
LINE
  8
0
 10
3955
 20
-1000
 11
3955
 21
-19
  0
LINE
  8
0
 10
3955
 20
-19
 11
3935
 21
-19
  0
LINE
  8
0
 10
3935
 20
-19
 11
3935
 21
-1000
  0
LINE
  8
0
 10
3935
 20
-1000
 11
3895
 21
-1000
  0
LINE
  8
0
 10
3895
 20
-1000
 11
3895
 21
0
  0
LINE
  8
0
 10
3895
 20
0
 11
4000
 21
0
  0
LINE
  8
0
 10
4000
 20
0
 11
4000
 21
3500
  0
LINE
  8
0
 10
4000
 20
3500
 11
19000
 21
3500
  0
LINE
  8
0
 10
19000
 20
3500
 11
19000
 21
4500
  0
LINE
  8
0
 10
19000
 20
4500
 11
3000
 21
4500
  0
LINE
  8
0
 10
3000
 20
4500
 11
3000
 21
0
  0
LINE
  8
0
 10
3000
 20
0
 11
3105
 21
0
  0
LINE
  8
0
 10
3105
 20
0
 11
3105
 21
-1000
  0
LINE
  8
0
 10
3105
 20
-1000
 11
3065
 21
-1000
  0
LINE
  8
0
 10
3065
 20
-1000
 11
3065
 21
-19
  0
LINE
  8
0
 10
3065
 20
-19
 11
3045
 21
-19
  0
LINE
  8
0
 10
3045
 20
-19
 11
3045
 21
-1000
  0
LINE
  8
0
 10
3045
 20
-1000
 11
3000
 21
-1000
  0
LINE
  8
0
 10
3000
 20
-1000
 11
3000
 21
-5500
  0
LINE
  8
0
 10
3000
 20
-5500
 11
19000
 21
-5500
  0
LINE
  8
0
 10
19000
 20
-5500
 11
19000
 21
-4500
  0
LINE
  8
0
 10
3395
 20
-1000
 11
3395
 21
0
  0
LINE
  8
0
 10
3395
 20
0
 11
3605
 21
0
  0
LINE
  8
0
 10
3605
 20
0
 11
3605
 21
-1000
  0
LINE
  8
0
 10
3605
 20
-1000
 11
3565
 21
-1000
  0
LINE
  8
0
 10
3565
 20
-1000
 11
3565
 21
-19
  0
LINE
  8
0
 10
3565
 20
-19
 11
3545
 21
-19
  0
LINE
  8
0
 10
3545
 20
-19
 11
3545
 21
-1000
  0
LINE
  8
0
 10
3545
 20
-1000
 11
3455
 21
-1000
  0
LINE
  8
0
 10
3455
 20
-1000
 11
3455
 21
-19
  0
LINE
  8
0
 10
3455
 20
-19
 11
3435
 21
-19
  0
LINE
  8
0
 10
3435
 20
-19
 11
3435
 21
-1000
  0
LINE
  8
0
 10
3435
 20
-1000
 11
3395
 21
-1000
  0
LINE
  8
0
 10
3145
 20
-1000
 11
3145
 21
0
  0
LINE
  8
0
 10
3145
 20
0
 11
3355
 21
0
  0
LINE
  8
0
 10
3355
 20
0
 11
3355
 21
-1000
  0
LINE
  8
0
 10
3355
 20
-1000
 11
3315
 21
-1000
  0
LINE
  8
0
 10
3315
 20
-1000
 11
3315
 21
-19
  0
LINE
  8
0
 10
3315
 20
-19
 11
3295
 21
-19
  0
LINE
  8
0
 10
3295
 20
-19
 11
3295
 21
-1000
  0
LINE
  8
0
 10
3295
 20
-1000
 11
3205
 21
-1000
  0
LINE
  8
0
 10
3205
 20
-1000
 11
3205
 21
-19
  0
LINE
  8
0
 10
3205
 20
-19
 11
3185
 21
-19
  0
LINE
  8
0
 10
3185
 20
-19
 11
3185
 21
-1000
  0
LINE
  8
0
 10
3185
 20
-1000
 11
3145
 21
-1000
  0
LINE
  8
0
 10
3645
 20
-1000
 11
3645
 21
0
  0
LINE
  8
0
 10
3645
 20
0
 11
3855
 21
0
  0
LINE
  8
0
 10
3855
 20
0
 11
3855
 21
-1000
  0
LINE
  8
0
 10
3855
 20
-1000
 11
3815
 21
-1000
  0
LINE
  8
0
 10
3815
 20
-1000
 11
3815
 21
-19
  0
LINE
  8
0
 10
3815
 20
-19
 11
3795
 21
-19
  0
LINE
  8
0
 10
3795
 20
-19
 11
3795
 21
-1000
  0
LINE
  8
0
 10
3795
 20
-1000
 11
3705
 21
-1000
  0
LINE
  8
0
 10
3705
 20
-1000
 11
3705
 21
-19
  0
LINE
  8
0
 10
3705
 20
-19
 11
3685
 21
-19
  0
LINE
  8
0
 10
3685
 20
-19
 11
3685
 21
-1000
  0
LINE
  8
0
 10
3685
 20
-1000
 11
3645
 21
-1000
  0
LINE
  8
0
 10
-3500
 20
-1000
 11
-3545
 21
-1000
  0
LINE
  8
0
 10
-3545
 20
-1000
 11
-3545
 21
-19
  0
LINE
  8
0
 10
-3545
 20
-19
 11
-3565
 21
-19
  0
LINE
  8
0
 10
-3565
 20
-19
 11
-3565
 21
-1000
  0
LINE
  8
0
 10
-3565
 20
-1000
 11
-3605
 21
-1000
  0
LINE
  8
0
 10
-3605
 20
-1000
 11
-3605
 21
0
  0
LINE
  8
0
 10
-3605
 20
0
 11
-3500
 21
0
  0
LINE
  8
0
 10
-3500
 20
0
 11
-3500
 21
4500
  0
LINE
  8
0
 10
-3500
 20
4500
 11
-19500
 21
4500
  0
LINE
  8
0
 10
-19500
 20
4500
 11
-19500
 21
3500
  0
LINE
  8
0
 10
-19500
 20
3500
 11
-4500
 21
3500
  0
LINE
  8
0
 10
-4500
 20
3500
 11
-4500
 21
0
  0
LINE
  8
0
 10
-4500
 20
0
 11
-4395
 21
0
  0
LINE
  8
0
 10
-4395
 20
0
 11
-4395
 21
-1000
  0
LINE
  8
0
 10
-4395
 20
-1000
 11
-4435
 21
-1000
  0
LINE
  8
0
 10
-4435
 20
-1000
 11
-4435
 21
-19
  0
LINE
  8
0
 10
-4435
 20
-19
 11
-4455
 21
-19
  0
LINE
  8
0
 10
-4455
 20
-19
 11
-4455
 21
-1000
  0
LINE
  8
0
 10
-4455
 20
-1000
 11
-4500
 21
-1000
  0
LINE
  8
0
 10
-4500
 20
-1000
 11
-4500
 21
-4500
  0
LINE
  8
0
 10
-4500
 20
-4500
 11
-19500
 21
-4500
  0
LINE
  8
0
 10
-19500
 20
-4500
 11
-19500
 21
-5500
  0
LINE
  8
0
 10
-19500
 20
-5500
 11
-3500
 21
-5500
  0
LINE
  8
0
 10
-3500
 20
-5500
 11
-3500
 21
-1000
  0
LINE
  8
0
 10
-4355
 20
-1000
 11
-4355
 21
0
  0
LINE
  8
0
 10
-4355
 20
0
 11
-4145
 21
0
  0
LINE
  8
0
 10
-4145
 20
0
 11
-4145
 21
-1000
  0
LINE
  8
0
 10
-4145
 20
-1000
 11
-4185
 21
-1000
  0
LINE
  8
0
 10
-4185
 20
-1000
 11
-4185
 21
-19
  0
LINE
  8
0
 10
-4185
 20
-19
 11
-4205
 21
-19
  0
LINE
  8
0
 10
-4205
 20
-19
 11
-4205
 21
-1000
  0
LINE
  8
0
 10
-4205
 20
-1000
 11
-4295
 21
-1000
  0
LINE
  8
0
 10
-4295
 20
-1000
 11
-4295
 21
-19
  0
LINE
  8
0
 10
-4295
 20
-19
 11
-4315
 21
-19
  0
LINE
  8
0
 10
-4315
 20
-19
 11
-4315
 21
-1000
  0
LINE
  8
0
 10
-4315
 20
-1000
 11
-4355
 21
-1000
  0
LINE
  8
0
 10
-3855
 20
-1000
 11
-3855
 21
0
  0
LINE
  8
0
 10
-3855
 20
0
 11
-3645
 21
0
  0
LINE
  8
0
 10
-3645
 20
0
 11
-3645
 21
-1000
  0
LINE
  8
0
 10
-3645
 20
-1000
 11
-3685
 21
-1000
  0
LINE
  8
0
 10
-3685
 20
-1000
 11
-3685
 21
-19
  0
LINE
  8
0
 10
-3685
 20
-19
 11
-3705
 21
-19
  0
LINE
  8
0
 10
-3705
 20
-19
 11
-3705
 21
-1000
  0
LINE
  8
0
 10
-3705
 20
-1000
 11
-3795
 21
-1000
  0
LINE
  8
0
 10
-3795
 20
-1000
 11
-3795
 21
-19
  0
LINE
  8
0
 10
-3795
 20
-19
 11
-3815
 21
-19
  0
LINE
  8
0
 10
-3815
 20
-19
 11
-3815
 21
-1000
  0
LINE
  8
0
 10
-3815
 20
-1000
 11
-3855
 21
-1000
  0
LINE
  8
0
 10
-4105
 20
-1000
 11
-4105
 21
0
  0
LINE
  8
0
 10
-4105
 20
0
 11
-3895
 21
0
  0
LINE
  8
0
 10
-3895
 20
0
 11
-3895
 21
-1000
  0
LINE
  8
0
 10
-3895
 20
-1000
 11
-3935
 21
-1000
  0
LINE
  8
0
 10
-3935
 20
-1000
 11
-3935
 21
-19
  0
LINE
  8
0
 10
-3935
 20
-19
 11
-3955
 21
-19
  0
LINE
  8
0
 10
-3955
 20
-19
 11
-3955
 21
-1000
  0
LINE
  8
0
 10
-3955
 20
-1000
 11
-4045
 21
-1000
  0
LINE
  8
0
 10
-4045
 20
-1000
 11
-4045
 21
-19
  0
LINE
  8
0
 10
-4045
 20
-19
 11
-4065
 21
-19
  0
LINE
  8
0
 10
-4065
 20
-19
 11
-4065
 21
-1000
  0
LINE
  8
0
 10
-4065
 20
-1000
 11
-4105
 21
-1000
  0
LINE
  8
0
 10
-37350
 20
-10
 11
-37864
 21
-10
  0
LINE
  8
0
 10
-37864
 20
-10
 11
-37864
 21
-25
  0
LINE
  8
0
 10
-37864
 20
-25
 11
-37868
 21
-25
  0
LINE
  8
0
 10
-37868
 20
-25
 11
-37868
 21
-10
  0
LINE
  8
0
 10
-37868
 20
-10
 11
-37872.4
 21
-10
  0
LINE
  8
0
 10
-37872.4
 20
-10
 11
-37872.4
 21
-30
  0
LINE
  8
0
 10
-37872.4
 20
-30
 11
-37876.4
 21
-30
  0
LINE
  8
0
 10
-37876.4
 20
-30
 11
-37876.4
 21
-10
  0
LINE
  8
0
 10
-37876.4
 20
-10
 11
-37880.8
 21
-10
  0
LINE
  8
0
 10
-37880.8
 20
-10
 11
-37880.8
 21
-35
  0
LINE
  8
0
 10
-37880.8
 20
-35
 11
-37884.8
 21
-35
  0
LINE
  8
0
 10
-37884.8
 20
-35
 11
-37884.8
 21
-10
  0
LINE
  8
0
 10
-37884.8
 20
-10
 11
-37889.2
 21
-10
  0
LINE
  8
0
 10
-37889.2
 20
-10
 11
-37889.2
 21
-40
  0
LINE
  8
0
 10
-37889.2
 20
-40
 11
-37893.2
 21
-40
  0
LINE
  8
0
 10
-37893.2
 20
-40
 11
-37893.2
 21
-10
  0
LINE
  8
0
 10
-37893.2
 20
-10
 11
-37897.6
 21
-10
  0
LINE
  8
0
 10
-37897.6
 20
-10
 11
-37897.6
 21
-45
  0
LINE
  8
0
 10
-37897.6
 20
-45
 11
-37901.6
 21
-45
  0
LINE
  8
0
 10
-37901.6
 20
-45
 11
-37901.6
 21
-10
  0
LINE
  8
0
 10
-37901.6
 20
-10
 11
-37906
 21
-10
  0
LINE
  8
0
 10
-37906
 20
-10
 11
-37906
 21
-50
  0
LINE
  8
0
 10
-37906
 20
-50
 11
-37910
 21
-50
  0
LINE
  8
0
 10
-37910
 20
-50
 11
-37910
 21
-10
  0
LINE
  8
0
 10
-37910
 20
-10
 11
-37914.4
 21
-10
  0
LINE
  8
0
 10
-37914.4
 20
-10
 11
-37914.4
 21
-45
  0
LINE
  8
0
 10
-37914.4
 20
-45
 11
-37918.4
 21
-45
  0
LINE
  8
0
 10
-37918.4
 20
-45
 11
-37918.4
 21
-10
  0
LINE
  8
0
 10
-37918.4
 20
-10
 11
-37922.8
 21
-10
  0
LINE
  8
0
 10
-37922.8
 20
-10
 11
-37922.8
 21
-40
  0
LINE
  8
0
 10
-37922.8
 20
-40
 11
-37926.8
 21
-40
  0
LINE
  8
0
 10
-37926.8
 20
-40
 11
-37926.8
 21
-10
  0
LINE
  8
0
 10
-37926.8
 20
-10
 11
-37931.2
 21
-10
  0
LINE
  8
0
 10
-37931.2
 20
-10
 11
-37931.2
 21
-35
  0
LINE
  8
0
 10
-37931.2
 20
-35
 11
-37935.2
 21
-35
  0
LINE
  8
0
 10
-37935.2
 20
-35
 11
-37935.2
 21
-10
  0
LINE
  8
0
 10
-37935.2
 20
-10
 11
-37939.6
 21
-10
  0
LINE
  8
0
 10
-37939.6
 20
-10
 11
-37939.6
 21
-30
  0
LINE
  8
0
 10
-37939.6
 20
-30
 11
-37943.6
 21
-30
  0
LINE
  8
0
 10
-37943.6
 20
-30
 11
-37943.6
 21
-10
  0
LINE
  8
0
 10
-37943.6
 20
-10
 11
-37948
 21
-10
  0
LINE
  8
0
 10
-37948
 20
-10
 11
-37948
 21
-25
  0
LINE
  8
0
 10
-37948
 20
-25
 11
-37952
 21
-25
  0
LINE
  8
0
 10
-37952
 20
-25
 11
-37952
 21
0
  0
LINE
  8
0
 10
-37952
 20
0
 11
-37948
 21
0
  0
LINE
  8
0
 10
-37948
 20
0
 11
-37948
 21
-8
  0
LINE
  8
0
 10
-37948
 20
-8
 11
-37943.6
 21
-8
  0
LINE
  8
0
 10
-37943.6
 20
-8
 11
-37943.6
 21
0
  0
LINE
  8
0
 10
-37943.6
 20
0
 11
-37939.6
 21
0
  0
LINE
  8
0
 10
-37939.6
 20
0
 11
-37939.6
 21
-8
  0
LINE
  8
0
 10
-37939.6
 20
-8
 11
-37935.2
 21
-8
  0
LINE
  8
0
 10
-37935.2
 20
-8
 11
-37935.2
 21
0
  0
LINE
  8
0
 10
-37935.2
 20
0
 11
-37931.2
 21
0
  0
LINE
  8
0
 10
-37931.2
 20
0
 11
-37931.2
 21
-8
  0
LINE
  8
0
 10
-37931.2
 20
-8
 11
-37926.8
 21
-8
  0
LINE
  8
0
 10
-37926.8
 20
-8
 11
-37926.8
 21
0
  0
LINE
  8
0
 10
-37926.8
 20
0
 11
-37922.8
 21
0
  0
LINE
  8
0
 10
-37922.8
 20
0
 11
-37922.8
 21
-8
  0
LINE
  8
0
 10
-37922.8
 20
-8
 11
-37918.4
 21
-8
  0
LINE
  8
0
 10
-37918.4
 20
-8
 11
-37918.4
 21
0
  0
LINE
  8
0
 10
-37918.4
 20
0
 11
-37914.4
 21
0
  0
LINE
  8
0
 10
-37914.4
 20
0
 11
-37914.4
 21
-8
  0
LINE
  8
0
 10
-37914.4
 20
-8
 11
-37910
 21
-8
  0
LINE
  8
0
 10
-37910
 20
-8
 11
-37910
 21
0
  0
LINE
  8
0
 10
-37910
 20
0
 11
-37906
 21
0
  0
LINE
  8
0
 10
-37906
 20
0
 11
-37906
 21
-8
  0
LINE
  8
0
 10
-37906
 20
-8
 11
-37901.6
 21
-8
  0
LINE
  8
0
 10
-37901.6
 20
-8
 11
-37901.6
 21
0
  0
LINE
  8
0
 10
-37901.6
 20
0
 11
-37897.6
 21
0
  0
LINE
  8
0
 10
-37897.6
 20
0
 11
-37897.6
 21
-8
  0
LINE
  8
0
 10
-37897.6
 20
-8
 11
-37893.2
 21
-8
  0
LINE
  8
0
 10
-37893.2
 20
-8
 11
-37893.2
 21
0
  0
LINE
  8
0
 10
-37893.2
 20
0
 11
-37889.2
 21
0
  0
LINE
  8
0
 10
-37889.2
 20
0
 11
-37889.2
 21
-8
  0
LINE
  8
0
 10
-37889.2
 20
-8
 11
-37884.8
 21
-8
  0
LINE
  8
0
 10
-37884.8
 20
-8
 11
-37884.8
 21
0
  0
LINE
  8
0
 10
-37884.8
 20
0
 11
-37880.8
 21
0
  0
LINE
  8
0
 10
-37880.8
 20
0
 11
-37880.8
 21
-8
  0
LINE
  8
0
 10
-37880.8
 20
-8
 11
-37876.4
 21
-8
  0
LINE
  8
0
 10
-37876.4
 20
-8
 11
-37876.4
 21
0
  0
LINE
  8
0
 10
-37876.4
 20
0
 11
-37872.4
 21
0
  0
LINE
  8
0
 10
-37872.4
 20
0
 11
-37872.4
 21
-8
  0
LINE
  8
0
 10
-37872.4
 20
-8
 11
-37868
 21
-8
  0
LINE
  8
0
 10
-37868
 20
-8
 11
-37868
 21
0
  0
LINE
  8
0
 10
-37868
 20
0
 11
-37864
 21
0
  0
LINE
  8
0
 10
-37864
 20
0
 11
-37864
 21
-8
  0
LINE
  8
0
 10
-37864
 20
-8
 11
-37350
 21
-8
  0
LINE
  8
0
 10
-37350
 20
-8
 11
-37350
 21
150
  0
LINE
  8
0
 10
-37350
 20
150
 11
-37804.5
 21
150
  0
LINE
  8
0
 10
-37804.5
 20
150
 11
-37804.5
 21
145
  0
LINE
  8
0
 10
-37804.5
 20
145
 11
-37845
 21
145
  0
LINE
  8
0
 10
-37845
 20
145
 11
-37845
 21
104.5
  0
LINE
  8
0
 10
-37845
 20
104.5
 11
-37855
 21
104.5
  0
LINE
  8
0
 10
-37855
 20
104.5
 11
-37855
 21
145
  0
LINE
  8
0
 10
-37855
 20
145
 11
-37895.5
 21
145
  0
LINE
  8
0
 10
-37895.5
 20
145
 11
-37895.5
 21
155
  0
LINE
  8
0
 10
-37895.5
 20
155
 11
-37855
 21
155
  0
LINE
  8
0
 10
-37855
 20
155
 11
-37855
 21
195.5
  0
LINE
  8
0
 10
-37855
 20
195.5
 11
-37845
 21
195.5
  0
LINE
  8
0
 10
-37845
 20
195.5
 11
-37845
 21
155
  0
LINE
  8
0
 10
-37845
 20
155
 11
-37804.5
 21
155
  0
LINE
  8
0
 10
-37804.5
 20
155
 11
-37804.5
 21
152
  0
LINE
  8
0
 10
-37804.5
 20
152
 11
-37350
 21
152
  0
LINE
  8
0
 10
-37350
 20
152
 11
-37350
 21
650
  0
LINE
  8
0
 10
-37350
 20
650
 11
-38008
 21
650
  0
LINE
  8
0
 10
-38008
 20
650
 11
-38008
 21
136
  0
LINE
  8
0
 10
-38008
 20
136
 11
-38000
 21
136
  0
LINE
  8
0
 10
-38000
 20
136
 11
-38000
 21
132
  0
LINE
  8
0
 10
-38000
 20
132
 11
-38008
 21
132
  0
LINE
  8
0
 10
-38008
 20
132
 11
-38008
 21
127.6
  0
LINE
  8
0
 10
-38008
 20
127.6
 11
-38000
 21
127.6
  0
LINE
  8
0
 10
-38000
 20
127.6
 11
-38000
 21
123.6
  0
LINE
  8
0
 10
-38000
 20
123.6
 11
-38008
 21
123.6
  0
LINE
  8
0
 10
-38008
 20
123.6
 11
-38008
 21
119.2
  0
LINE
  8
0
 10
-38008
 20
119.2
 11
-38000
 21
119.2
  0
LINE
  8
0
 10
-38000
 20
119.2
 11
-38000
 21
115.2
  0
LINE
  8
0
 10
-38000
 20
115.2
 11
-38008
 21
115.2
  0
LINE
  8
0
 10
-38008
 20
115.2
 11
-38008
 21
110.8
  0
LINE
  8
0
 10
-38008
 20
110.8
 11
-38000
 21
110.8
  0
LINE
  8
0
 10
-38000
 20
110.8
 11
-38000
 21
106.8
  0
LINE
  8
0
 10
-38000
 20
106.8
 11
-38008
 21
106.8
  0
LINE
  8
0
 10
-38008
 20
106.8
 11
-38008
 21
102.4
  0
LINE
  8
0
 10
-38008
 20
102.4
 11
-38000
 21
102.4
  0
LINE
  8
0
 10
-38000
 20
102.4
 11
-38000
 21
98.4
  0
LINE
  8
0
 10
-38000
 20
98.4
 11
-38008
 21
98.4
  0
LINE
  8
0
 10
-38008
 20
98.4
 11
-38008
 21
94
  0
LINE
  8
0
 10
-38008
 20
94
 11
-38000
 21
94
  0
LINE
  8
0
 10
-38000
 20
94
 11
-38000
 21
90
  0
LINE
  8
0
 10
-38000
 20
90
 11
-38008
 21
90
  0
LINE
  8
0
 10
-38008
 20
90
 11
-38008
 21
85.6
  0
LINE
  8
0
 10
-38008
 20
85.6
 11
-38000
 21
85.6
  0
LINE
  8
0
 10
-38000
 20
85.6
 11
-38000
 21
81.6
  0
LINE
  8
0
 10
-38000
 20
81.6
 11
-38008
 21
81.6
  0
LINE
  8
0
 10
-38008
 20
81.6
 11
-38008
 21
77.2
  0
LINE
  8
0
 10
-38008
 20
77.2
 11
-38000
 21
77.2
  0
LINE
  8
0
 10
-38000
 20
77.2
 11
-38000
 21
73.2
  0
LINE
  8
0
 10
-38000
 20
73.2
 11
-38008
 21
73.2
  0
LINE
  8
0
 10
-38008
 20
73.2
 11
-38008
 21
68.8
  0
LINE
  8
0
 10
-38008
 20
68.8
 11
-38000
 21
68.8
  0
LINE
  8
0
 10
-38000
 20
68.8
 11
-38000
 21
64.8
  0
LINE
  8
0
 10
-38000
 20
64.8
 11
-38008
 21
64.8
  0
LINE
  8
0
 10
-38008
 20
64.8
 11
-38008
 21
60.4
  0
LINE
  8
0
 10
-38008
 20
60.4
 11
-38000
 21
60.4
  0
LINE
  8
0
 10
-38000
 20
60.4
 11
-38000
 21
56.4
  0
LINE
  8
0
 10
-38000
 20
56.4
 11
-38008
 21
56.4
  0
LINE
  8
0
 10
-38008
 20
56.4
 11
-38008
 21
52
  0
LINE
  8
0
 10
-38008
 20
52
 11
-38000
 21
52
  0
LINE
  8
0
 10
-38000
 20
52
 11
-38000
 21
48
  0
LINE
  8
0
 10
-38000
 20
48
 11
-38025
 21
48
  0
LINE
  8
0
 10
-38025
 20
48
 11
-38025
 21
52
  0
LINE
  8
0
 10
-38025
 20
52
 11
-38010
 21
52
  0
LINE
  8
0
 10
-38010
 20
52
 11
-38010
 21
56.4
  0
LINE
  8
0
 10
-38010
 20
56.4
 11
-38030
 21
56.4
  0
LINE
  8
0
 10
-38030
 20
56.4
 11
-38030
 21
60.4
  0
LINE
  8
0
 10
-38030
 20
60.4
 11
-38010
 21
60.4
  0
LINE
  8
0
 10
-38010
 20
60.4
 11
-38010
 21
64.8
  0
LINE
  8
0
 10
-38010
 20
64.8
 11
-38035
 21
64.8
  0
LINE
  8
0
 10
-38035
 20
64.8
 11
-38035
 21
68.8
  0
LINE
  8
0
 10
-38035
 20
68.8
 11
-38010
 21
68.8
  0
LINE
  8
0
 10
-38010
 20
68.8
 11
-38010
 21
73.2
  0
LINE
  8
0
 10
-38010
 20
73.2
 11
-38040
 21
73.2
  0
LINE
  8
0
 10
-38040
 20
73.2
 11
-38040
 21
77.2
  0
LINE
  8
0
 10
-38040
 20
77.2
 11
-38010
 21
77.2
  0
LINE
  8
0
 10
-38010
 20
77.2
 11
-38010
 21
81.6
  0
LINE
  8
0
 10
-38010
 20
81.6
 11
-38045
 21
81.6
  0
LINE
  8
0
 10
-38045
 20
81.6
 11
-38045
 21
85.6
  0
LINE
  8
0
 10
-38045
 20
85.6
 11
-38010
 21
85.6
  0
LINE
  8
0
 10
-38010
 20
85.6
 11
-38010
 21
90
  0
LINE
  8
0
 10
-38010
 20
90
 11
-38050
 21
90
  0
LINE
  8
0
 10
-38050
 20
90
 11
-38050
 21
94
  0
LINE
  8
0
 10
-38050
 20
94
 11
-38010
 21
94
  0
LINE
  8
0
 10
-38010
 20
94
 11
-38010
 21
98.4
  0
LINE
  8
0
 10
-38010
 20
98.4
 11
-38045
 21
98.4
  0
LINE
  8
0
 10
-38045
 20
98.4
 11
-38045
 21
102.4
  0
LINE
  8
0
 10
-38045
 20
102.4
 11
-38010
 21
102.4
  0
LINE
  8
0
 10
-38010
 20
102.4
 11
-38010
 21
106.8
  0
LINE
  8
0
 10
-38010
 20
106.8
 11
-38040
 21
106.8
  0
LINE
  8
0
 10
-38040
 20
106.8
 11
-38040
 21
110.8
  0
LINE
  8
0
 10
-38040
 20
110.8
 11
-38010
 21
110.8
  0
LINE
  8
0
 10
-38010
 20
110.8
 11
-38010
 21
115.2
  0
LINE
  8
0
 10
-38010
 20
115.2
 11
-38035
 21
115.2
  0
LINE
  8
0
 10
-38035
 20
115.2
 11
-38035
 21
119.2
  0
LINE
  8
0
 10
-38035
 20
119.2
 11
-38010
 21
119.2
  0
LINE
  8
0
 10
-38010
 20
119.2
 11
-38010
 21
123.6
  0
LINE
  8
0
 10
-38010
 20
123.6
 11
-38030
 21
123.6
  0
LINE
  8
0
 10
-38030
 20
123.6
 11
-38030
 21
127.6
  0
LINE
  8
0
 10
-38030
 20
127.6
 11
-38010
 21
127.6
  0
LINE
  8
0
 10
-38010
 20
127.6
 11
-38010
 21
132
  0
LINE
  8
0
 10
-38010
 20
132
 11
-38025
 21
132
  0
LINE
  8
0
 10
-38025
 20
132
 11
-38025
 21
136
  0
LINE
  8
0
 10
-38025
 20
136
 11
-38010
 21
136
  0
LINE
  8
0
 10
-38010
 20
136
 11
-38010
 21
650
  0
LINE
  8
0
 10
-38010
 20
650
 11
-38350
 21
650
  0
LINE
  8
0
 10
-38350
 20
650
 11
-38350
 21
-350
  0
LINE
  8
0
 10
-38350
 20
-350
 11
-37350
 21
-350
  0
LINE
  8
0
 10
-37350
 20
-350
 11
-37350
 21
-10
  0
LINE
  8
0
 10
38650
 20
-10
 11
38136
 21
-10
  0
LINE
  8
0
 10
38136
 20
-10
 11
38136
 21
-25
  0
LINE
  8
0
 10
38136
 20
-25
 11
38132
 21
-25
  0
LINE
  8
0
 10
38132
 20
-25
 11
38132
 21
-10
  0
LINE
  8
0
 10
38132
 20
-10
 11
38127.6
 21
-10
  0
LINE
  8
0
 10
38127.6
 20
-10
 11
38127.6
 21
-30
  0
LINE
  8
0
 10
38127.6
 20
-30
 11
38123.6
 21
-30
  0
LINE
  8
0
 10
38123.6
 20
-30
 11
38123.6
 21
-10
  0
LINE
  8
0
 10
38123.6
 20
-10
 11
38119.2
 21
-10
  0
LINE
  8
0
 10
38119.2
 20
-10
 11
38119.2
 21
-35
  0
LINE
  8
0
 10
38119.2
 20
-35
 11
38115.2
 21
-35
  0
LINE
  8
0
 10
38115.2
 20
-35
 11
38115.2
 21
-10
  0
LINE
  8
0
 10
38115.2
 20
-10
 11
38110.8
 21
-10
  0
LINE
  8
0
 10
38110.8
 20
-10
 11
38110.8
 21
-40
  0
LINE
  8
0
 10
38110.8
 20
-40
 11
38106.8
 21
-40
  0
LINE
  8
0
 10
38106.8
 20
-40
 11
38106.8
 21
-10
  0
LINE
  8
0
 10
38106.8
 20
-10
 11
38102.4
 21
-10
  0
LINE
  8
0
 10
38102.4
 20
-10
 11
38102.4
 21
-45
  0
LINE
  8
0
 10
38102.4
 20
-45
 11
38098.4
 21
-45
  0
LINE
  8
0
 10
38098.4
 20
-45
 11
38098.4
 21
-10
  0
LINE
  8
0
 10
38098.4
 20
-10
 11
38094
 21
-10
  0
LINE
  8
0
 10
38094
 20
-10
 11
38094
 21
-50
  0
LINE
  8
0
 10
38094
 20
-50
 11
38090
 21
-50
  0
LINE
  8
0
 10
38090
 20
-50
 11
38090
 21
-10
  0
LINE
  8
0
 10
38090
 20
-10
 11
38085.6
 21
-10
  0
LINE
  8
0
 10
38085.6
 20
-10
 11
38085.6
 21
-45
  0
LINE
  8
0
 10
38085.6
 20
-45
 11
38081.6
 21
-45
  0
LINE
  8
0
 10
38081.6
 20
-45
 11
38081.6
 21
-10
  0
LINE
  8
0
 10
38081.6
 20
-10
 11
38077.2
 21
-10
  0
LINE
  8
0
 10
38077.2
 20
-10
 11
38077.2
 21
-40
  0
LINE
  8
0
 10
38077.2
 20
-40
 11
38073.2
 21
-40
  0
LINE
  8
0
 10
38073.2
 20
-40
 11
38073.2
 21
-10
  0
LINE
  8
0
 10
38073.2
 20
-10
 11
38068.8
 21
-10
  0
LINE
  8
0
 10
38068.8
 20
-10
 11
38068.8
 21
-35
  0
LINE
  8
0
 10
38068.8
 20
-35
 11
38064.8
 21
-35
  0
LINE
  8
0
 10
38064.8
 20
-35
 11
38064.8
 21
-10
  0
LINE
  8
0
 10
38064.8
 20
-10
 11
38060.4
 21
-10
  0
LINE
  8
0
 10
38060.4
 20
-10
 11
38060.4
 21
-30
  0
LINE
  8
0
 10
38060.4
 20
-30
 11
38056.4
 21
-30
  0
LINE
  8
0
 10
38056.4
 20
-30
 11
38056.4
 21
-10
  0
LINE
  8
0
 10
38056.4
 20
-10
 11
38052
 21
-10
  0
LINE
  8
0
 10
38052
 20
-10
 11
38052
 21
-25
  0
LINE
  8
0
 10
38052
 20
-25
 11
38048
 21
-25
  0
LINE
  8
0
 10
38048
 20
-25
 11
38048
 21
0
  0
LINE
  8
0
 10
38048
 20
0
 11
38052
 21
0
  0
LINE
  8
0
 10
38052
 20
0
 11
38052
 21
-8
  0
LINE
  8
0
 10
38052
 20
-8
 11
38056.4
 21
-8
  0
LINE
  8
0
 10
38056.4
 20
-8
 11
38056.4
 21
0
  0
LINE
  8
0
 10
38056.4
 20
0
 11
38060.4
 21
0
  0
LINE
  8
0
 10
38060.4
 20
0
 11
38060.4
 21
-8
  0
LINE
  8
0
 10
38060.4
 20
-8
 11
38064.8
 21
-8
  0
LINE
  8
0
 10
38064.8
 20
-8
 11
38064.8
 21
0
  0
LINE
  8
0
 10
38064.8
 20
0
 11
38068.8
 21
0
  0
LINE
  8
0
 10
38068.8
 20
0
 11
38068.8
 21
-8
  0
LINE
  8
0
 10
38068.8
 20
-8
 11
38073.2
 21
-8
  0
LINE
  8
0
 10
38073.2
 20
-8
 11
38073.2
 21
0
  0
LINE
  8
0
 10
38073.2
 20
0
 11
38077.2
 21
0
  0
LINE
  8
0
 10
38077.2
 20
0
 11
38077.2
 21
-8
  0
LINE
  8
0
 10
38077.2
 20
-8
 11
38081.6
 21
-8
  0
LINE
  8
0
 10
38081.6
 20
-8
 11
38081.6
 21
0
  0
LINE
  8
0
 10
38081.6
 20
0
 11
38085.6
 21
0
  0
LINE
  8
0
 10
38085.6
 20
0
 11
38085.6
 21
-8
  0
LINE
  8
0
 10
38085.6
 20
-8
 11
38090
 21
-8
  0
LINE
  8
0
 10
38090
 20
-8
 11
38090
 21
0
  0
LINE
  8
0
 10
38090
 20
0
 11
38094
 21
0
  0
LINE
  8
0
 10
38094
 20
0
 11
38094
 21
-8
  0
LINE
  8
0
 10
38094
 20
-8
 11
38098.4
 21
-8
  0
LINE
  8
0
 10
38098.4
 20
-8
 11
38098.4
 21
0
  0
LINE
  8
0
 10
38098.4
 20
0
 11
38102.4
 21
0
  0
LINE
  8
0
 10
38102.4
 20
0
 11
38102.4
 21
-8
  0
LINE
  8
0
 10
38102.4
 20
-8
 11
38106.8
 21
-8
  0
LINE
  8
0
 10
38106.8
 20
-8
 11
38106.8
 21
0
  0
LINE
  8
0
 10
38106.8
 20
0
 11
38110.8
 21
0
  0
LINE
  8
0
 10
38110.8
 20
0
 11
38110.8
 21
-8
  0
LINE
  8
0
 10
38110.8
 20
-8
 11
38115.2
 21
-8
  0
LINE
  8
0
 10
38115.2
 20
-8
 11
38115.2
 21
0
  0
LINE
  8
0
 10
38115.2
 20
0
 11
38119.2
 21
0
  0
LINE
  8
0
 10
38119.2
 20
0
 11
38119.2
 21
-8
  0
LINE
  8
0
 10
38119.2
 20
-8
 11
38123.6
 21
-8
  0
LINE
  8
0
 10
38123.6
 20
-8
 11
38123.6
 21
0
  0
LINE
  8
0
 10
38123.6
 20
0
 11
38127.6
 21
0
  0
LINE
  8
0
 10
38127.6
 20
0
 11
38127.6
 21
-8
  0
LINE
  8
0
 10
38127.6
 20
-8
 11
38132
 21
-8
  0
LINE
  8
0
 10
38132
 20
-8
 11
38132
 21
0
  0
LINE
  8
0
 10
38132
 20
0
 11
38136
 21
0
  0
LINE
  8
0
 10
38136
 20
0
 11
38136
 21
-8
  0
LINE
  8
0
 10
38136
 20
-8
 11
38650
 21
-8
  0
LINE
  8
0
 10
38650
 20
-8
 11
38650
 21
150
  0
LINE
  8
0
 10
38650
 20
150
 11
38195.5
 21
150
  0
LINE
  8
0
 10
38195.5
 20
150
 11
38195.5
 21
145
  0
LINE
  8
0
 10
38195.5
 20
145
 11
38155
 21
145
  0
LINE
  8
0
 10
38155
 20
145
 11
38155
 21
104.5
  0
LINE
  8
0
 10
38155
 20
104.5
 11
38145
 21
104.5
  0
LINE
  8
0
 10
38145
 20
104.5
 11
38145
 21
145
  0
LINE
  8
0
 10
38145
 20
145
 11
38104.5
 21
145
  0
LINE
  8
0
 10
38104.5
 20
145
 11
38104.5
 21
155
  0
LINE
  8
0
 10
38104.5
 20
155
 11
38145
 21
155
  0
LINE
  8
0
 10
38145
 20
155
 11
38145
 21
195.5
  0
LINE
  8
0
 10
38145
 20
195.5
 11
38155
 21
195.5
  0
LINE
  8
0
 10
38155
 20
195.5
 11
38155
 21
155
  0
LINE
  8
0
 10
38155
 20
155
 11
38195.5
 21
155
  0
LINE
  8
0
 10
38195.5
 20
155
 11
38195.5
 21
152
  0
LINE
  8
0
 10
38195.5
 20
152
 11
38650
 21
152
  0
LINE
  8
0
 10
38650
 20
152
 11
38650
 21
650
  0
LINE
  8
0
 10
38650
 20
650
 11
37992
 21
650
  0
LINE
  8
0
 10
37992
 20
650
 11
37992
 21
136
  0
LINE
  8
0
 10
37992
 20
136
 11
38000
 21
136
  0
LINE
  8
0
 10
38000
 20
136
 11
38000
 21
132
  0
LINE
  8
0
 10
38000
 20
132
 11
37992
 21
132
  0
LINE
  8
0
 10
37992
 20
132
 11
37992
 21
127.6
  0
LINE
  8
0
 10
37992
 20
127.6
 11
38000
 21
127.6
  0
LINE
  8
0
 10
38000
 20
127.6
 11
38000
 21
123.6
  0
LINE
  8
0
 10
38000
 20
123.6
 11
37992
 21
123.6
  0
LINE
  8
0
 10
37992
 20
123.6
 11
37992
 21
119.2
  0
LINE
  8
0
 10
37992
 20
119.2
 11
38000
 21
119.2
  0
LINE
  8
0
 10
38000
 20
119.2
 11
38000
 21
115.2
  0
LINE
  8
0
 10
38000
 20
115.2
 11
37992
 21
115.2
  0
LINE
  8
0
 10
37992
 20
115.2
 11
37992
 21
110.8
  0
LINE
  8
0
 10
37992
 20
110.8
 11
38000
 21
110.8
  0
LINE
  8
0
 10
38000
 20
110.8
 11
38000
 21
106.8
  0
LINE
  8
0
 10
38000
 20
106.8
 11
37992
 21
106.8
  0
LINE
  8
0
 10
37992
 20
106.8
 11
37992
 21
102.4
  0
LINE
  8
0
 10
37992
 20
102.4
 11
38000
 21
102.4
  0
LINE
  8
0
 10
38000
 20
102.4
 11
38000
 21
98.4
  0
LINE
  8
0
 10
38000
 20
98.4
 11
37992
 21
98.4
  0
LINE
  8
0
 10
37992
 20
98.4
 11
37992
 21
94
  0
LINE
  8
0
 10
37992
 20
94
 11
38000
 21
94
  0
LINE
  8
0
 10
38000
 20
94
 11
38000
 21
90
  0
LINE
  8
0
 10
38000
 20
90
 11
37992
 21
90
  0
LINE
  8
0
 10
37992
 20
90
 11
37992
 21
85.6
  0
LINE
  8
0
 10
37992
 20
85.6
 11
38000
 21
85.6
  0
LINE
  8
0
 10
38000
 20
85.6
 11
38000
 21
81.6
  0
LINE
  8
0
 10
38000
 20
81.6
 11
37992
 21
81.6
  0
LINE
  8
0
 10
37992
 20
81.6
 11
37992
 21
77.2
  0
LINE
  8
0
 10
37992
 20
77.2
 11
38000
 21
77.2
  0
LINE
  8
0
 10
38000
 20
77.2
 11
38000
 21
73.2
  0
LINE
  8
0
 10
38000
 20
73.2
 11
37992
 21
73.2
  0
LINE
  8
0
 10
37992
 20
73.2
 11
37992
 21
68.8
  0
LINE
  8
0
 10
37992
 20
68.8
 11
38000
 21
68.8
  0
LINE
  8
0
 10
38000
 20
68.8
 11
38000
 21
64.8
  0
LINE
  8
0
 10
38000
 20
64.8
 11
37992
 21
64.8
  0
LINE
  8
0
 10
37992
 20
64.8
 11
37992
 21
60.4
  0
LINE
  8
0
 10
37992
 20
60.4
 11
38000
 21
60.4
  0
LINE
  8
0
 10
38000
 20
60.4
 11
38000
 21
56.4
  0
LINE
  8
0
 10
38000
 20
56.4
 11
37992
 21
56.4
  0
LINE
  8
0
 10
37992
 20
56.4
 11
37992
 21
52
  0
LINE
  8
0
 10
37992
 20
52
 11
38000
 21
52
  0
LINE
  8
0
 10
38000
 20
52
 11
38000
 21
48
  0
LINE
  8
0
 10
38000
 20
48
 11
37975
 21
48
  0
LINE
  8
0
 10
37975
 20
48
 11
37975
 21
52
  0
LINE
  8
0
 10
37975
 20
52
 11
37990
 21
52
  0
LINE
  8
0
 10
37990
 20
52
 11
37990
 21
56.4
  0
LINE
  8
0
 10
37990
 20
56.4
 11
37970
 21
56.4
  0
LINE
  8
0
 10
37970
 20
56.4
 11
37970
 21
60.4
  0
LINE
  8
0
 10
37970
 20
60.4
 11
37990
 21
60.4
  0
LINE
  8
0
 10
37990
 20
60.4
 11
37990
 21
64.8
  0
LINE
  8
0
 10
37990
 20
64.8
 11
37965
 21
64.8
  0
LINE
  8
0
 10
37965
 20
64.8
 11
37965
 21
68.8
  0
LINE
  8
0
 10
37965
 20
68.8
 11
37990
 21
68.8
  0
LINE
  8
0
 10
37990
 20
68.8
 11
37990
 21
73.2
  0
LINE
  8
0
 10
37990
 20
73.2
 11
37960
 21
73.2
  0
LINE
  8
0
 10
37960
 20
73.2
 11
37960
 21
77.2
  0
LINE
  8
0
 10
37960
 20
77.2
 11
37990
 21
77.2
  0
LINE
  8
0
 10
37990
 20
77.2
 11
37990
 21
81.6
  0
LINE
  8
0
 10
37990
 20
81.6
 11
37955
 21
81.6
  0
LINE
  8
0
 10
37955
 20
81.6
 11
37955
 21
85.6
  0
LINE
  8
0
 10
37955
 20
85.6
 11
37990
 21
85.6
  0
LINE
  8
0
 10
37990
 20
85.6
 11
37990
 21
90
  0
LINE
  8
0
 10
37990
 20
90
 11
37950
 21
90
  0
LINE
  8
0
 10
37950
 20
90
 11
37950
 21
94
  0
LINE
  8
0
 10
37950
 20
94
 11
37990
 21
94
  0
LINE
  8
0
 10
37990
 20
94
 11
37990
 21
98.4
  0
LINE
  8
0
 10
37990
 20
98.4
 11
37955
 21
98.4
  0
LINE
  8
0
 10
37955
 20
98.4
 11
37955
 21
102.4
  0
LINE
  8
0
 10
37955
 20
102.4
 11
37990
 21
102.4
  0
LINE
  8
0
 10
37990
 20
102.4
 11
37990
 21
106.8
  0
LINE
  8
0
 10
37990
 20
106.8
 11
37960
 21
106.8
  0
LINE
  8
0
 10
37960
 20
106.8
 11
37960
 21
110.8
  0
LINE
  8
0
 10
37960
 20
110.8
 11
37990
 21
110.8
  0
LINE
  8
0
 10
37990
 20
110.8
 11
37990
 21
115.2
  0
LINE
  8
0
 10
37990
 20
115.2
 11
37965
 21
115.2
  0
LINE
  8
0
 10
37965
 20
115.2
 11
37965
 21
119.2
  0
LINE
  8
0
 10
37965
 20
119.2
 11
37990
 21
119.2
  0
LINE
  8
0
 10
37990
 20
119.2
 11
37990
 21
123.6
  0
LINE
  8
0
 10
37990
 20
123.6
 11
37970
 21
123.6
  0
LINE
  8
0
 10
37970
 20
123.6
 11
37970
 21
127.6
  0
LINE
  8
0
 10
37970
 20
127.6
 11
37990
 21
127.6
  0
LINE
  8
0
 10
37990
 20
127.6
 11
37990
 21
132
  0
LINE
  8
0
 10
37990
 20
132
 11
37975
 21
132
  0
LINE
  8
0
 10
37975
 20
132
 11
37975
 21
136
  0
LINE
  8
0
 10
37975
 20
136
 11
37990
 21
136
  0
LINE
  8
0
 10
37990
 20
136
 11
37990
 21
650
  0
LINE
  8
0
 10
37990
 20
650
 11
37650
 21
650
  0
LINE
  8
0
 10
37650
 20
650
 11
37650
 21
-350
  0
LINE
  8
0
 10
37650
 20
-350
 11
38650
 21
-350
  0
LINE
  8
0
 10
38650
 20
-350
 11
38650
 21
-10
  0
LINE
  8
0
 10
21000
 20
-15000
 11
20000
 21
-15000
  0
LINE
  8
0
 10
20000
 20
-15000
 11
20000
 21
-21360
  0
LINE
  8
0
 10
20000
 20
-21360
 11
21000
 21
-21360
  0
LINE
  8
0
 10
21000
 20
-21360
 11
21000
 21
-15000
  0
LINE
  8
0
 10
-19000
 20
-17900
 11
-19005
 21
-17900
  0
LINE
  8
0
 10
-19005
 20
-17900
 11
-19005
 21
-17850
  0
LINE
  8
0
 10
-19005
 20
-17850
 11
-19000
 21
-17850
  0
LINE
  8
0
 10
-19000
 20
-17850
 11
-19000
 21
-15000
  0
LINE
  8
0
 10
-19000
 20
-15000
 11
-20000
 21
-15000
  0
LINE
  8
0
 10
-20000
 20
-15000
 11
-20000
 21
-17950
  0
LINE
  8
0
 10
-20000
 20
-17950
 11
-19994
 21
-17950
  0
LINE
  8
0
 10
-19994
 20
-17950
 11
-19994
 21
-18000
  0
LINE
  8
0
 10
-19994
 20
-18000
 11
-20000
 21
-18000
  0
LINE
  8
0
 10
-20000
 20
-18000
 11
-20000
 21
-21360
  0
LINE
  8
0
 10
-20000
 20
-21360
 11
-19000
 21
-21360
  0
LINE
  8
0
 10
-19000
 20
-21360
 11
-19000
 21
-17900
  0
LINE
  8
0
 10
-19500
 20
-17500
 11
-19500
 21
-17450
  0
LINE
  8
0
 10
-19500
 20
-17450
 11
-19490
 21
-17450
  0
LINE
  8
0
 10
-19490
 20
-17450
 11
-19490
 21
-17500
  0
LINE
  8
0
 10
-19490
 20
-17500
 11
-19500
 21
-17500
  0
LINE
  8
0
 10
-19680
 20
-17600
 11
-19680
 21
-17550
  0
LINE
  8
0
 10
-19680
 20
-17550
 11
-19670
 21
-17550
  0
LINE
  8
0
 10
-19670
 20
-17550
 11
-19670
 21
-17600
  0
LINE
  8
0
 10
-19670
 20
-17600
 11
-19680
 21
-17600
  0
LINE
  8
0
 10
-19320
 20
-17600
 11
-19320
 21
-17550
  0
LINE
  8
0
 10
-19320
 20
-17550
 11
-19310
 21
-17550
  0
LINE
  8
0
 10
-19310
 20
-17550
 11
-19310
 21
-17600
  0
LINE
  8
0
 10
-19310
 20
-17600
 11
-19320
 21
-17600
  0
LINE
  8
0
 10
-19500
 20
-17600
 11
-19500
 21
-17550
  0
LINE
  8
0
 10
-19500
 20
-17550
 11
-19490
 21
-17550
  0
LINE
  8
0
 10
-19490
 20
-17550
 11
-19490
 21
-17600
  0
LINE
  8
0
 10
-19490
 20
-17600
 11
-19500
 21
-17600
  0
LINE
  8
0
 10
-19590
 20
-17700
 11
-19590
 21
-17650
  0
LINE
  8
0
 10
-19590
 20
-17650
 11
-19580
 21
-17650
  0
LINE
  8
0
 10
-19580
 20
-17650
 11
-19580
 21
-17700
  0
LINE
  8
0
 10
-19580
 20
-17700
 11
-19590
 21
-17700
  0
LINE
  8
0
 10
-19860
 20
-17700
 11
-19860
 21
-17650
  0
LINE
  8
0
 10
-19860
 20
-17650
 11
-19850
 21
-17650
  0
LINE
  8
0
 10
-19850
 20
-17650
 11
-19850
 21
-17700
  0
LINE
  8
0
 10
-19850
 20
-17700
 11
-19860
 21
-17700
  0
LINE
  8
0
 10
-19410
 20
-17700
 11
-19410
 21
-17650
  0
LINE
  8
0
 10
-19410
 20
-17650
 11
-19400
 21
-17650
  0
LINE
  8
0
 10
-19400
 20
-17650
 11
-19400
 21
-17700
  0
LINE
  8
0
 10
-19400
 20
-17700
 11
-19410
 21
-17700
  0
LINE
  8
0
 10
-19680
 20
-17700
 11
-19680
 21
-17650
  0
LINE
  8
0
 10
-19680
 20
-17650
 11
-19670
 21
-17650
  0
LINE
  8
0
 10
-19670
 20
-17650
 11
-19670
 21
-17700
  0
LINE
  8
0
 10
-19670
 20
-17700
 11
-19680
 21
-17700
  0
LINE
  8
0
 10
-19500
 20
-17700
 11
-19500
 21
-17650
  0
LINE
  8
0
 10
-19500
 20
-17650
 11
-19490
 21
-17650
  0
LINE
  8
0
 10
-19490
 20
-17650
 11
-19490
 21
-17700
  0
LINE
  8
0
 10
-19490
 20
-17700
 11
-19500
 21
-17700
  0
LINE
  8
0
 10
-19770
 20
-17700
 11
-19770
 21
-17650
  0
LINE
  8
0
 10
-19770
 20
-17650
 11
-19760
 21
-17650
  0
LINE
  8
0
 10
-19760
 20
-17650
 11
-19760
 21
-17700
  0
LINE
  8
0
 10
-19760
 20
-17700
 11
-19770
 21
-17700
  0
LINE
  8
0
 10
-19230
 20
-17700
 11
-19230
 21
-17650
  0
LINE
  8
0
 10
-19230
 20
-17650
 11
-19220
 21
-17650
  0
LINE
  8
0
 10
-19220
 20
-17650
 11
-19220
 21
-17700
  0
LINE
  8
0
 10
-19220
 20
-17700
 11
-19230
 21
-17700
  0
LINE
  8
0
 10
-19320
 20
-17700
 11
-19320
 21
-17650
  0
LINE
  8
0
 10
-19320
 20
-17650
 11
-19310
 21
-17650
  0
LINE
  8
0
 10
-19310
 20
-17650
 11
-19310
 21
-17700
  0
LINE
  8
0
 10
-19310
 20
-17700
 11
-19320
 21
-17700
  0
LINE
  8
0
 10
-19140
 20
-17700
 11
-19140
 21
-17650
  0
LINE
  8
0
 10
-19140
 20
-17650
 11
-19130
 21
-17650
  0
LINE
  8
0
 10
-19130
 20
-17650
 11
-19130
 21
-17700
  0
LINE
  8
0
 10
-19130
 20
-17700
 11
-19140
 21
-17700
  0
LINE
  8
0
 10
-19140
 20
-17800
 11
-19140
 21
-17750
  0
LINE
  8
0
 10
-19140
 20
-17750
 11
-19130
 21
-17750
  0
LINE
  8
0
 10
-19130
 20
-17750
 11
-19130
 21
-17800
  0
LINE
  8
0
 10
-19130
 20
-17800
 11
-19140
 21
-17800
  0
LINE
  8
0
 10
-19680
 20
-17800
 11
-19680
 21
-17750
  0
LINE
  8
0
 10
-19680
 20
-17750
 11
-19670
 21
-17750
  0
LINE
  8
0
 10
-19670
 20
-17750
 11
-19670
 21
-17800
  0
LINE
  8
0
 10
-19670
 20
-17800
 11
-19680
 21
-17800
  0
LINE
  8
0
 10
-19620
 20
-17800
 11
-19620
 21
-17750
  0
LINE
  8
0
 10
-19620
 20
-17750
 11
-19610
 21
-17750
  0
LINE
  8
0
 10
-19610
 20
-17750
 11
-19610
 21
-17800
  0
LINE
  8
0
 10
-19610
 20
-17800
 11
-19620
 21
-17800
  0
LINE
  8
0
 10
-19740
 20
-17800
 11
-19740
 21
-17750
  0
LINE
  8
0
 10
-19740
 20
-17750
 11
-19730
 21
-17750
  0
LINE
  8
0
 10
-19730
 20
-17750
 11
-19730
 21
-17800
  0
LINE
  8
0
 10
-19730
 20
-17800
 11
-19740
 21
-17800
  0
LINE
  8
0
 10
-19260
 20
-17800
 11
-19260
 21
-17750
  0
LINE
  8
0
 10
-19260
 20
-17750
 11
-19250
 21
-17750
  0
LINE
  8
0
 10
-19250
 20
-17750
 11
-19250
 21
-17800
  0
LINE
  8
0
 10
-19250
 20
-17800
 11
-19260
 21
-17800
  0
LINE
  8
0
 10
-19800
 20
-17800
 11
-19800
 21
-17750
  0
LINE
  8
0
 10
-19800
 20
-17750
 11
-19790
 21
-17750
  0
LINE
  8
0
 10
-19790
 20
-17750
 11
-19790
 21
-17800
  0
LINE
  8
0
 10
-19790
 20
-17800
 11
-19800
 21
-17800
  0
LINE
  8
0
 10
-19980
 20
-17800
 11
-19980
 21
-17750
  0
LINE
  8
0
 10
-19980
 20
-17750
 11
-19970
 21
-17750
  0
LINE
  8
0
 10
-19970
 20
-17750
 11
-19970
 21
-17800
  0
LINE
  8
0
 10
-19970
 20
-17800
 11
-19980
 21
-17800
  0
LINE
  8
0
 10
-19920
 20
-17800
 11
-19920
 21
-17750
  0
LINE
  8
0
 10
-19920
 20
-17750
 11
-19910
 21
-17750
  0
LINE
  8
0
 10
-19910
 20
-17750
 11
-19910
 21
-17800
  0
LINE
  8
0
 10
-19910
 20
-17800
 11
-19920
 21
-17800
  0
LINE
  8
0
 10
-19380
 20
-17800
 11
-19380
 21
-17750
  0
LINE
  8
0
 10
-19380
 20
-17750
 11
-19370
 21
-17750
  0
LINE
  8
0
 10
-19370
 20
-17750
 11
-19370
 21
-17800
  0
LINE
  8
0
 10
-19370
 20
-17800
 11
-19380
 21
-17800
  0
LINE
  8
0
 10
-19320
 20
-17800
 11
-19320
 21
-17750
  0
LINE
  8
0
 10
-19320
 20
-17750
 11
-19310
 21
-17750
  0
LINE
  8
0
 10
-19310
 20
-17750
 11
-19310
 21
-17800
  0
LINE
  8
0
 10
-19310
 20
-17800
 11
-19320
 21
-17800
  0
LINE
  8
0
 10
-19020
 20
-17800
 11
-19020
 21
-17750
  0
LINE
  8
0
 10
-19020
 20
-17750
 11
-19010
 21
-17750
  0
LINE
  8
0
 10
-19010
 20
-17750
 11
-19010
 21
-17800
  0
LINE
  8
0
 10
-19010
 20
-17800
 11
-19020
 21
-17800
  0
LINE
  8
0
 10
-19080
 20
-17800
 11
-19080
 21
-17750
  0
LINE
  8
0
 10
-19080
 20
-17750
 11
-19070
 21
-17750
  0
LINE
  8
0
 10
-19070
 20
-17750
 11
-19070
 21
-17800
  0
LINE
  8
0
 10
-19070
 20
-17800
 11
-19080
 21
-17800
  0
LINE
  8
0
 10
-19200
 20
-17800
 11
-19200
 21
-17750
  0
LINE
  8
0
 10
-19200
 20
-17750
 11
-19190
 21
-17750
  0
LINE
  8
0
 10
-19190
 20
-17750
 11
-19190
 21
-17800
  0
LINE
  8
0
 10
-19190
 20
-17800
 11
-19200
 21
-17800
  0
LINE
  8
0
 10
-19440
 20
-17800
 11
-19440
 21
-17750
  0
LINE
  8
0
 10
-19440
 20
-17750
 11
-19430
 21
-17750
  0
LINE
  8
0
 10
-19430
 20
-17750
 11
-19430
 21
-17800
  0
LINE
  8
0
 10
-19430
 20
-17800
 11
-19440
 21
-17800
  0
LINE
  8
0
 10
-19500
 20
-17800
 11
-19500
 21
-17750
  0
LINE
  8
0
 10
-19500
 20
-17750
 11
-19490
 21
-17750
  0
LINE
  8
0
 10
-19490
 20
-17750
 11
-19490
 21
-17800
  0
LINE
  8
0
 10
-19490
 20
-17800
 11
-19500
 21
-17800
  0
LINE
  8
0
 10
-19560
 20
-17800
 11
-19560
 21
-17750
  0
LINE
  8
0
 10
-19560
 20
-17750
 11
-19550
 21
-17750
  0
LINE
  8
0
 10
-19550
 20
-17750
 11
-19550
 21
-17800
  0
LINE
  8
0
 10
-19550
 20
-17800
 11
-19560
 21
-17800
  0
LINE
  8
0
 10
-19860
 20
-17800
 11
-19860
 21
-17750
  0
LINE
  8
0
 10
-19860
 20
-17750
 11
-19850
 21
-17750
  0
LINE
  8
0
 10
-19850
 20
-17750
 11
-19850
 21
-17800
  0
LINE
  8
0
 10
-19850
 20
-17800
 11
-19860
 21
-17800
  0
LINE
  8
0
 10
-19995
 20
-17900
 11
-19995
 21
-17850
  0
LINE
  8
0
 10
-19995
 20
-17850
 11
-19985
 21
-17850
  0
LINE
  8
0
 10
-19985
 20
-17850
 11
-19985
 21
-17900
  0
LINE
  8
0
 10
-19985
 20
-17900
 11
-19995
 21
-17900
  0
LINE
  8
0
 10
-19635
 20
-17900
 11
-19635
 21
-17850
  0
LINE
  8
0
 10
-19635
 20
-17850
 11
-19625
 21
-17850
  0
LINE
  8
0
 10
-19625
 20
-17850
 11
-19625
 21
-17900
  0
LINE
  8
0
 10
-19625
 20
-17900
 11
-19635
 21
-17900
  0
LINE
  8
0
 10
-19320
 20
-17900
 11
-19320
 21
-17850
  0
LINE
  8
0
 10
-19320
 20
-17850
 11
-19310
 21
-17850
  0
LINE
  8
0
 10
-19310
 20
-17850
 11
-19310
 21
-17900
  0
LINE
  8
0
 10
-19310
 20
-17900
 11
-19320
 21
-17900
  0
LINE
  8
0
 10
-19725
 20
-17900
 11
-19725
 21
-17850
  0
LINE
  8
0
 10
-19725
 20
-17850
 11
-19715
 21
-17850
  0
LINE
  8
0
 10
-19715
 20
-17850
 11
-19715
 21
-17900
  0
LINE
  8
0
 10
-19715
 20
-17900
 11
-19725
 21
-17900
  0
LINE
  8
0
 10
-19770
 20
-17900
 11
-19770
 21
-17850
  0
LINE
  8
0
 10
-19770
 20
-17850
 11
-19760
 21
-17850
  0
LINE
  8
0
 10
-19760
 20
-17850
 11
-19760
 21
-17900
  0
LINE
  8
0
 10
-19760
 20
-17900
 11
-19770
 21
-17900
  0
LINE
  8
0
 10
-19860
 20
-17900
 11
-19860
 21
-17850
  0
LINE
  8
0
 10
-19860
 20
-17850
 11
-19850
 21
-17850
  0
LINE
  8
0
 10
-19850
 20
-17850
 11
-19850
 21
-17900
  0
LINE
  8
0
 10
-19850
 20
-17900
 11
-19860
 21
-17900
  0
LINE
  8
0
 10
-19905
 20
-17900
 11
-19905
 21
-17850
  0
LINE
  8
0
 10
-19905
 20
-17850
 11
-19895
 21
-17850
  0
LINE
  8
0
 10
-19895
 20
-17850
 11
-19895
 21
-17900
  0
LINE
  8
0
 10
-19895
 20
-17900
 11
-19905
 21
-17900
  0
LINE
  8
0
 10
-19950
 20
-17900
 11
-19950
 21
-17850
  0
LINE
  8
0
 10
-19950
 20
-17850
 11
-19940
 21
-17850
  0
LINE
  8
0
 10
-19940
 20
-17850
 11
-19940
 21
-17900
  0
LINE
  8
0
 10
-19940
 20
-17900
 11
-19950
 21
-17900
  0
LINE
  8
0
 10
-19590
 20
-17900
 11
-19590
 21
-17850
  0
LINE
  8
0
 10
-19590
 20
-17850
 11
-19580
 21
-17850
  0
LINE
  8
0
 10
-19580
 20
-17850
 11
-19580
 21
-17900
  0
LINE
  8
0
 10
-19580
 20
-17900
 11
-19590
 21
-17900
  0
LINE
  8
0
 10
-19815
 20
-17900
 11
-19815
 21
-17850
  0
LINE
  8
0
 10
-19815
 20
-17850
 11
-19805
 21
-17850
  0
LINE
  8
0
 10
-19805
 20
-17850
 11
-19805
 21
-17900
  0
LINE
  8
0
 10
-19805
 20
-17900
 11
-19815
 21
-17900
  0
LINE
  8
0
 10
-19500
 20
-17900
 11
-19500
 21
-17850
  0
LINE
  8
0
 10
-19500
 20
-17850
 11
-19490
 21
-17850
  0
LINE
  8
0
 10
-19490
 20
-17850
 11
-19490
 21
-17900
  0
LINE
  8
0
 10
-19490
 20
-17900
 11
-19500
 21
-17900
  0
LINE
  8
0
 10
-19545
 20
-17900
 11
-19545
 21
-17850
  0
LINE
  8
0
 10
-19545
 20
-17850
 11
-19535
 21
-17850
  0
LINE
  8
0
 10
-19535
 20
-17850
 11
-19535
 21
-17900
  0
LINE
  8
0
 10
-19535
 20
-17900
 11
-19545
 21
-17900
  0
LINE
  8
0
 10
-19230
 20
-17900
 11
-19230
 21
-17850
  0
LINE
  8
0
 10
-19230
 20
-17850
 11
-19220
 21
-17850
  0
LINE
  8
0
 10
-19220
 20
-17850
 11
-19220
 21
-17900
  0
LINE
  8
0
 10
-19220
 20
-17900
 11
-19230
 21
-17900
  0
LINE
  8
0
 10
-19455
 20
-17900
 11
-19455
 21
-17850
  0
LINE
  8
0
 10
-19455
 20
-17850
 11
-19445
 21
-17850
  0
LINE
  8
0
 10
-19445
 20
-17850
 11
-19445
 21
-17900
  0
LINE
  8
0
 10
-19445
 20
-17900
 11
-19455
 21
-17900
  0
LINE
  8
0
 10
-19095
 20
-17900
 11
-19095
 21
-17850
  0
LINE
  8
0
 10
-19095
 20
-17850
 11
-19085
 21
-17850
  0
LINE
  8
0
 10
-19085
 20
-17850
 11
-19085
 21
-17900
  0
LINE
  8
0
 10
-19085
 20
-17900
 11
-19095
 21
-17900
  0
LINE
  8
0
 10
-19050
 20
-17900
 11
-19050
 21
-17850
  0
LINE
  8
0
 10
-19050
 20
-17850
 11
-19040
 21
-17850
  0
LINE
  8
0
 10
-19040
 20
-17850
 11
-19040
 21
-17900
  0
LINE
  8
0
 10
-19040
 20
-17900
 11
-19050
 21
-17900
  0
LINE
  8
0
 10
-19365
 20
-17900
 11
-19365
 21
-17850
  0
LINE
  8
0
 10
-19365
 20
-17850
 11
-19355
 21
-17850
  0
LINE
  8
0
 10
-19355
 20
-17850
 11
-19355
 21
-17900
  0
LINE
  8
0
 10
-19355
 20
-17900
 11
-19365
 21
-17900
  0
LINE
  8
0
 10
-19140
 20
-17900
 11
-19140
 21
-17850
  0
LINE
  8
0
 10
-19140
 20
-17850
 11
-19130
 21
-17850
  0
LINE
  8
0
 10
-19130
 20
-17850
 11
-19130
 21
-17900
  0
LINE
  8
0
 10
-19130
 20
-17900
 11
-19140
 21
-17900
  0
LINE
  8
0
 10
-19680
 20
-17900
 11
-19680
 21
-17850
  0
LINE
  8
0
 10
-19680
 20
-17850
 11
-19670
 21
-17850
  0
LINE
  8
0
 10
-19670
 20
-17850
 11
-19670
 21
-17900
  0
LINE
  8
0
 10
-19670
 20
-17900
 11
-19680
 21
-17900
  0
LINE
  8
0
 10
-19185
 20
-17900
 11
-19185
 21
-17850
  0
LINE
  8
0
 10
-19185
 20
-17850
 11
-19175
 21
-17850
  0
LINE
  8
0
 10
-19175
 20
-17850
 11
-19175
 21
-17900
  0
LINE
  8
0
 10
-19175
 20
-17900
 11
-19185
 21
-17900
  0
LINE
  8
0
 10
-19275
 20
-17900
 11
-19275
 21
-17850
  0
LINE
  8
0
 10
-19275
 20
-17850
 11
-19265
 21
-17850
  0
LINE
  8
0
 10
-19265
 20
-17850
 11
-19265
 21
-17900
  0
LINE
  8
0
 10
-19265
 20
-17900
 11
-19275
 21
-17900
  0
LINE
  8
0
 10
-19410
 20
-17900
 11
-19410
 21
-17850
  0
LINE
  8
0
 10
-19410
 20
-17850
 11
-19400
 21
-17850
  0
LINE
  8
0
 10
-19400
 20
-17850
 11
-19400
 21
-17900
  0
LINE
  8
0
 10
-19400
 20
-17900
 11
-19410
 21
-17900
  0
LINE
  8
0
 10
-19032
 20
-18000
 11
-19032
 21
-17950
  0
LINE
  8
0
 10
-19032
 20
-17950
 11
-19022
 21
-17950
  0
LINE
  8
0
 10
-19022
 20
-17950
 11
-19022
 21
-18000
  0
LINE
  8
0
 10
-19022
 20
-18000
 11
-19032
 21
-18000
  0
LINE
  8
0
 10
-19320
 20
-18000
 11
-19320
 21
-17950
  0
LINE
  8
0
 10
-19320
 20
-17950
 11
-19310
 21
-17950
  0
LINE
  8
0
 10
-19310
 20
-17950
 11
-19310
 21
-18000
  0
LINE
  8
0
 10
-19310
 20
-18000
 11
-19320
 21
-18000
  0
LINE
  8
0
 10
-19752
 20
-18000
 11
-19752
 21
-17950
  0
LINE
  8
0
 10
-19752
 20
-17950
 11
-19742
 21
-17950
  0
LINE
  8
0
 10
-19742
 20
-17950
 11
-19742
 21
-18000
  0
LINE
  8
0
 10
-19742
 20
-18000
 11
-19752
 21
-18000
  0
LINE
  8
0
 10
-19356
 20
-18000
 11
-19356
 21
-17950
  0
LINE
  8
0
 10
-19356
 20
-17950
 11
-19346
 21
-17950
  0
LINE
  8
0
 10
-19346
 20
-17950
 11
-19346
 21
-18000
  0
LINE
  8
0
 10
-19346
 20
-18000
 11
-19356
 21
-18000
  0
LINE
  8
0
 10
-19788
 20
-18000
 11
-19788
 21
-17950
  0
LINE
  8
0
 10
-19788
 20
-17950
 11
-19778
 21
-17950
  0
LINE
  8
0
 10
-19778
 20
-17950
 11
-19778
 21
-18000
  0
LINE
  8
0
 10
-19778
 20
-18000
 11
-19788
 21
-18000
  0
LINE
  8
0
 10
-19716
 20
-18000
 11
-19716
 21
-17950
  0
LINE
  8
0
 10
-19716
 20
-17950
 11
-19706
 21
-17950
  0
LINE
  8
0
 10
-19706
 20
-17950
 11
-19706
 21
-18000
  0
LINE
  8
0
 10
-19706
 20
-18000
 11
-19716
 21
-18000
  0
LINE
  8
0
 10
-19644
 20
-18000
 11
-19644
 21
-17950
  0
LINE
  8
0
 10
-19644
 20
-17950
 11
-19634
 21
-17950
  0
LINE
  8
0
 10
-19634
 20
-17950
 11
-19634
 21
-18000
  0
LINE
  8
0
 10
-19634
 20
-18000
 11
-19644
 21
-18000
  0
LINE
  8
0
 10
-19608
 20
-18000
 11
-19608
 21
-17950
  0
LINE
  8
0
 10
-19608
 20
-17950
 11
-19598
 21
-17950
  0
LINE
  8
0
 10
-19598
 20
-17950
 11
-19598
 21
-18000
  0
LINE
  8
0
 10
-19598
 20
-18000
 11
-19608
 21
-18000
  0
LINE
  8
0
 10
-19572
 20
-18000
 11
-19572
 21
-17950
  0
LINE
  8
0
 10
-19572
 20
-17950
 11
-19562
 21
-17950
  0
LINE
  8
0
 10
-19562
 20
-17950
 11
-19562
 21
-18000
  0
LINE
  8
0
 10
-19562
 20
-18000
 11
-19572
 21
-18000
  0
LINE
  8
0
 10
-19968
 20
-18000
 11
-19968
 21
-17950
  0
LINE
  8
0
 10
-19968
 20
-17950
 11
-19958
 21
-17950
  0
LINE
  8
0
 10
-19958
 20
-17950
 11
-19958
 21
-18000
  0
LINE
  8
0
 10
-19958
 20
-18000
 11
-19968
 21
-18000
  0
LINE
  8
0
 10
-19932
 20
-18000
 11
-19932
 21
-17950
  0
LINE
  8
0
 10
-19932
 20
-17950
 11
-19922
 21
-17950
  0
LINE
  8
0
 10
-19922
 20
-17950
 11
-19922
 21
-18000
  0
LINE
  8
0
 10
-19922
 20
-18000
 11
-19932
 21
-18000
  0
LINE
  8
0
 10
-19896
 20
-18000
 11
-19896
 21
-17950
  0
LINE
  8
0
 10
-19896
 20
-17950
 11
-19886
 21
-17950
  0
LINE
  8
0
 10
-19886
 20
-17950
 11
-19886
 21
-18000
  0
LINE
  8
0
 10
-19886
 20
-18000
 11
-19896
 21
-18000
  0
LINE
  8
0
 10
-19860
 20
-18000
 11
-19860
 21
-17950
  0
LINE
  8
0
 10
-19860
 20
-17950
 11
-19850
 21
-17950
  0
LINE
  8
0
 10
-19850
 20
-17950
 11
-19850
 21
-18000
  0
LINE
  8
0
 10
-19850
 20
-18000
 11
-19860
 21
-18000
  0
LINE
  8
0
 10
-19428
 20
-18000
 11
-19428
 21
-17950
  0
LINE
  8
0
 10
-19428
 20
-17950
 11
-19418
 21
-17950
  0
LINE
  8
0
 10
-19418
 20
-17950
 11
-19418
 21
-18000
  0
LINE
  8
0
 10
-19418
 20
-18000
 11
-19428
 21
-18000
  0
LINE
  8
0
 10
-19536
 20
-18000
 11
-19536
 21
-17950
  0
LINE
  8
0
 10
-19536
 20
-17950
 11
-19526
 21
-17950
  0
LINE
  8
0
 10
-19526
 20
-17950
 11
-19526
 21
-18000
  0
LINE
  8
0
 10
-19526
 20
-18000
 11
-19536
 21
-18000
  0
LINE
  8
0
 10
-19500
 20
-18000
 11
-19500
 21
-17950
  0
LINE
  8
0
 10
-19500
 20
-17950
 11
-19490
 21
-17950
  0
LINE
  8
0
 10
-19490
 20
-17950
 11
-19490
 21
-18000
  0
LINE
  8
0
 10
-19490
 20
-18000
 11
-19500
 21
-18000
  0
LINE
  8
0
 10
-19824
 20
-18000
 11
-19824
 21
-17950
  0
LINE
  8
0
 10
-19824
 20
-17950
 11
-19814
 21
-17950
  0
LINE
  8
0
 10
-19814
 20
-17950
 11
-19814
 21
-18000
  0
LINE
  8
0
 10
-19814
 20
-18000
 11
-19824
 21
-18000
  0
LINE
  8
0
 10
-19392
 20
-18000
 11
-19392
 21
-17950
  0
LINE
  8
0
 10
-19392
 20
-17950
 11
-19382
 21
-17950
  0
LINE
  8
0
 10
-19382
 20
-17950
 11
-19382
 21
-18000
  0
LINE
  8
0
 10
-19382
 20
-18000
 11
-19392
 21
-18000
  0
LINE
  8
0
 10
-19680
 20
-18000
 11
-19680
 21
-17950
  0
LINE
  8
0
 10
-19680
 20
-17950
 11
-19670
 21
-17950
  0
LINE
  8
0
 10
-19670
 20
-17950
 11
-19670
 21
-18000
  0
LINE
  8
0
 10
-19670
 20
-18000
 11
-19680
 21
-18000
  0
LINE
  8
0
 10
-19248
 20
-18000
 11
-19248
 21
-17950
  0
LINE
  8
0
 10
-19248
 20
-17950
 11
-19238
 21
-17950
  0
LINE
  8
0
 10
-19238
 20
-17950
 11
-19238
 21
-18000
  0
LINE
  8
0
 10
-19238
 20
-18000
 11
-19248
 21
-18000
  0
LINE
  8
0
 10
-19212
 20
-18000
 11
-19212
 21
-17950
  0
LINE
  8
0
 10
-19212
 20
-17950
 11
-19202
 21
-17950
  0
LINE
  8
0
 10
-19202
 20
-17950
 11
-19202
 21
-18000
  0
LINE
  8
0
 10
-19202
 20
-18000
 11
-19212
 21
-18000
  0
LINE
  8
0
 10
-19284
 20
-18000
 11
-19284
 21
-17950
  0
LINE
  8
0
 10
-19284
 20
-17950
 11
-19274
 21
-17950
  0
LINE
  8
0
 10
-19274
 20
-17950
 11
-19274
 21
-18000
  0
LINE
  8
0
 10
-19274
 20
-18000
 11
-19284
 21
-18000
  0
LINE
  8
0
 10
-19176
 20
-18000
 11
-19176
 21
-17950
  0
LINE
  8
0
 10
-19176
 20
-17950
 11
-19166
 21
-17950
  0
LINE
  8
0
 10
-19166
 20
-17950
 11
-19166
 21
-18000
  0
LINE
  8
0
 10
-19166
 20
-18000
 11
-19176
 21
-18000
  0
LINE
  8
0
 10
-19140
 20
-18000
 11
-19140
 21
-17950
  0
LINE
  8
0
 10
-19140
 20
-17950
 11
-19130
 21
-17950
  0
LINE
  8
0
 10
-19130
 20
-17950
 11
-19130
 21
-18000
  0
LINE
  8
0
 10
-19130
 20
-18000
 11
-19140
 21
-18000
  0
LINE
  8
0
 10
-19104
 20
-18000
 11
-19104
 21
-17950
  0
LINE
  8
0
 10
-19104
 20
-17950
 11
-19094
 21
-17950
  0
LINE
  8
0
 10
-19094
 20
-17950
 11
-19094
 21
-18000
  0
LINE
  8
0
 10
-19094
 20
-18000
 11
-19104
 21
-18000
  0
LINE
  8
0
 10
-19068
 20
-18000
 11
-19068
 21
-17950
  0
LINE
  8
0
 10
-19068
 20
-17950
 11
-19058
 21
-17950
  0
LINE
  8
0
 10
-19058
 20
-17950
 11
-19058
 21
-18000
  0
LINE
  8
0
 10
-19058
 20
-18000
 11
-19068
 21
-18000
  0
LINE
  8
0
 10
-19464
 20
-18000
 11
-19464
 21
-17950
  0
LINE
  8
0
 10
-19464
 20
-17950
 11
-19454
 21
-17950
  0
LINE
  8
0
 10
-19454
 20
-17950
 11
-19454
 21
-18000
  0
LINE
  8
0
 10
-19454
 20
-18000
 11
-19464
 21
-18000
  0
LINE
  8
0
 10
-19000
 20
-23760
 11
-20000
 21
-23760
  0
LINE
  8
0
 10
-20000
 20
-23760
 11
-20000
 21
-30000
  0
LINE
  8
0
 10
-20000
 20
-30000
 11
-19000
 21
-30000
  0
LINE
  8
0
 10
-19000
 20
-30000
 11
-19000
 21
-23760
  0
LINE
  8
0
 10
21000
 20
-23760
 11
20000
 21
-23760
  0
LINE
  8
0
 10
20000
 20
-23760
 11
20000
 21
-30000
  0
LINE
  8
0
 10
20000
 20
-30000
 11
21000
 21
-30000
  0
LINE
  8
0
 10
21000
 20
-30000
 11
21000
 21
-23760
  0
LINE
  8
0
 10
0
 20
-24895
 11
1000
 21
-24895
  0
LINE
  8
0
 10
1000
 20
-24895
 11
1000
 21
-24935
  0
LINE
  8
0
 10
1000
 20
-24935
 11
19
 21
-24935
  0
LINE
  8
0
 10
19
 20
-24935
 11
19
 21
-24955
  0
LINE
  8
0
 10
19
 20
-24955
 11
1000
 21
-24955
  0
LINE
  8
0
 10
1000
 20
-24955
 11
1000
 21
-25000
  0
LINE
  8
0
 10
1000
 20
-25000
 11
8000
 21
-25000
  0
LINE
  8
0
 10
8000
 20
-25000
 11
8000
 21
-24000
  0
LINE
  8
0
 10
8000
 20
-24000
 11
1000
 21
-24000
  0
LINE
  8
0
 10
1000
 20
-24000
 11
1000
 21
-24045
  0
LINE
  8
0
 10
1000
 20
-24045
 11
19
 21
-24045
  0
LINE
  8
0
 10
19
 20
-24045
 11
19
 21
-24065
  0
LINE
  8
0
 10
19
 20
-24065
 11
1000
 21
-24065
  0
LINE
  8
0
 10
1000
 20
-24065
 11
1000
 21
-24105
  0
LINE
  8
0
 10
1000
 20
-24105
 11
0
 21
-24105
  0
LINE
  8
0
 10
0
 20
-24105
 11
0
 21
-24000
  0
LINE
  8
0
 10
0
 20
-24000
 11
-7000
 21
-24000
  0
LINE
  8
0
 10
-7000
 20
-24000
 11
-7000
 21
-25000
  0
LINE
  8
0
 10
-7000
 20
-25000
 11
0
 21
-25000
  0
LINE
  8
0
 10
0
 20
-25000
 11
0
 21
-24895
  0
LINE
  8
0
 10
0
 20
-24355
 11
0
 21
-24145
  0
LINE
  8
0
 10
0
 20
-24145
 11
1000
 21
-24145
  0
LINE
  8
0
 10
1000
 20
-24145
 11
1000
 21
-24185
  0
LINE
  8
0
 10
1000
 20
-24185
 11
19
 21
-24185
  0
LINE
  8
0
 10
19
 20
-24185
 11
19
 21
-24205
  0
LINE
  8
0
 10
19
 20
-24205
 11
1000
 21
-24205
  0
LINE
  8
0
 10
1000
 20
-24205
 11
1000
 21
-24295
  0
LINE
  8
0
 10
1000
 20
-24295
 11
19
 21
-24295
  0
LINE
  8
0
 10
19
 20
-24295
 11
19
 21
-24315
  0
LINE
  8
0
 10
19
 20
-24315
 11
1000
 21
-24315
  0
LINE
  8
0
 10
1000
 20
-24315
 11
1000
 21
-24355
  0
LINE
  8
0
 10
1000
 20
-24355
 11
0
 21
-24355
  0
LINE
  8
0
 10
0
 20
-24605
 11
0
 21
-24395
  0
LINE
  8
0
 10
0
 20
-24395
 11
1000
 21
-24395
  0
LINE
  8
0
 10
1000
 20
-24395
 11
1000
 21
-24435
  0
LINE
  8
0
 10
1000
 20
-24435
 11
19
 21
-24435
  0
LINE
  8
0
 10
19
 20
-24435
 11
19
 21
-24455
  0
LINE
  8
0
 10
19
 20
-24455
 11
1000
 21
-24455
  0
LINE
  8
0
 10
1000
 20
-24455
 11
1000
 21
-24545
  0
LINE
  8
0
 10
1000
 20
-24545
 11
19
 21
-24545
  0
LINE
  8
0
 10
19
 20
-24545
 11
19
 21
-24565
  0
LINE
  8
0
 10
19
 20
-24565
 11
1000
 21
-24565
  0
LINE
  8
0
 10
1000
 20
-24565
 11
1000
 21
-24605
  0
LINE
  8
0
 10
1000
 20
-24605
 11
0
 21
-24605
  0
LINE
  8
0
 10
0
 20
-24855
 11
0
 21
-24645
  0
LINE
  8
0
 10
0
 20
-24645
 11
1000
 21
-24645
  0
LINE
  8
0
 10
1000
 20
-24645
 11
1000
 21
-24685
  0
LINE
  8
0
 10
1000
 20
-24685
 11
19
 21
-24685
  0
LINE
  8
0
 10
19
 20
-24685
 11
19
 21
-24705
  0
LINE
  8
0
 10
19
 20
-24705
 11
1000
 21
-24705
  0
LINE
  8
0
 10
1000
 20
-24705
 11
1000
 21
-24795
  0
LINE
  8
0
 10
1000
 20
-24795
 11
19
 21
-24795
  0
LINE
  8
0
 10
19
 20
-24795
 11
19
 21
-24815
  0
LINE
  8
0
 10
19
 20
-24815
 11
1000
 21
-24815
  0
LINE
  8
0
 10
1000
 20
-24815
 11
1000
 21
-24855
  0
LINE
  8
0
 10
1000
 20
-24855
 11
0
 21
-24855
  0
LINE
  8
0
 10
7500
 20
-34000
 11
1260
 21
-34000
  0
LINE
  8
0
 10
1260
 20
-34000
 11
1260
 21
-35000
  0
LINE
  8
0
 10
1260
 20
-35000
 11
7500
 21
-35000
  0
LINE
  8
0
 10
7500
 20
-35000
 11
7500
 21
-34000
  0
LINE
  8
0
 10
-4550
 20
-34994
 11
-4500
 21
-34994
  0
LINE
  8
0
 10
-4500
 20
-34994
 11
-4500
 21
-35000
  0
LINE
  8
0
 10
-4500
 20
-35000
 11
60
 21
-35000
  0
LINE
  8
0
 10
60
 20
-35000
 11
60
 21
-34000
  0
LINE
  8
0
 10
60
 20
-34000
 11
-4600
 21
-34000
  0
LINE
  8
0
 10
-4600
 20
-34000
 11
-4600
 21
-34005
  0
LINE
  8
0
 10
-4600
 20
-34005
 11
-4650
 21
-34005
  0
LINE
  8
0
 10
-4650
 20
-34005
 11
-4650
 21
-34000
  0
LINE
  8
0
 10
-4650
 20
-34000
 11
-7500
 21
-34000
  0
LINE
  8
0
 10
-7500
 20
-34000
 11
-7500
 21
-35000
  0
LINE
  8
0
 10
-7500
 20
-35000
 11
-4550
 21
-35000
  0
LINE
  8
0
 10
-4550
 20
-35000
 11
-4550
 21
-34994
  0
LINE
  8
0
 10
-4750
 20
-34020
 11
-4750
 21
-34010
  0
LINE
  8
0
 10
-4750
 20
-34010
 11
-4700
 21
-34010
  0
LINE
  8
0
 10
-4700
 20
-34010
 11
-4700
 21
-34020
  0
LINE
  8
0
 10
-4700
 20
-34020
 11
-4750
 21
-34020
  0
LINE
  8
0
 10
-4550
 20
-34032
 11
-4550
 21
-34022
  0
LINE
  8
0
 10
-4550
 20
-34022
 11
-4500
 21
-34022
  0
LINE
  8
0
 10
-4500
 20
-34022
 11
-4500
 21
-34032
  0
LINE
  8
0
 10
-4500
 20
-34032
 11
-4550
 21
-34032
  0
LINE
  8
0
 10
-4650
 20
-34050
 11
-4650
 21
-34040
  0
LINE
  8
0
 10
-4650
 20
-34040
 11
-4600
 21
-34040
  0
LINE
  8
0
 10
-4600
 20
-34040
 11
-4600
 21
-34050
  0
LINE
  8
0
 10
-4600
 20
-34050
 11
-4650
 21
-34050
  0
LINE
  8
0
 10
-4550
 20
-34068
 11
-4550
 21
-34058
  0
LINE
  8
0
 10
-4550
 20
-34058
 11
-4500
 21
-34058
  0
LINE
  8
0
 10
-4500
 20
-34058
 11
-4500
 21
-34068
  0
LINE
  8
0
 10
-4500
 20
-34068
 11
-4550
 21
-34068
  0
LINE
  8
0
 10
-4750
 20
-34080
 11
-4750
 21
-34070
  0
LINE
  8
0
 10
-4750
 20
-34070
 11
-4700
 21
-34070
  0
LINE
  8
0
 10
-4700
 20
-34070
 11
-4700
 21
-34080
  0
LINE
  8
0
 10
-4700
 20
-34080
 11
-4750
 21
-34080
  0
LINE
  8
0
 10
-4650
 20
-34095
 11
-4650
 21
-34085
  0
LINE
  8
0
 10
-4650
 20
-34085
 11
-4600
 21
-34085
  0
LINE
  8
0
 10
-4600
 20
-34085
 11
-4600
 21
-34095
  0
LINE
  8
0
 10
-4600
 20
-34095
 11
-4650
 21
-34095
  0
LINE
  8
0
 10
-4550
 20
-34104
 11
-4550
 21
-34094
  0
LINE
  8
0
 10
-4550
 20
-34094
 11
-4500
 21
-34094
  0
LINE
  8
0
 10
-4500
 20
-34094
 11
-4500
 21
-34104
  0
LINE
  8
0
 10
-4500
 20
-34104
 11
-4550
 21
-34104
  0
LINE
  8
0
 10
-4550
 20
-34140
 11
-4550
 21
-34130
  0
LINE
  8
0
 10
-4550
 20
-34130
 11
-4500
 21
-34130
  0
LINE
  8
0
 10
-4500
 20
-34130
 11
-4500
 21
-34140
  0
LINE
  8
0
 10
-4500
 20
-34140
 11
-4550
 21
-34140
  0
LINE
  8
0
 10
-4750
 20
-34140
 11
-4750
 21
-34130
  0
LINE
  8
0
 10
-4750
 20
-34130
 11
-4700
 21
-34130
  0
LINE
  8
0
 10
-4700
 20
-34130
 11
-4700
 21
-34140
  0
LINE
  8
0
 10
-4700
 20
-34140
 11
-4750
 21
-34140
  0
LINE
  8
0
 10
-4850
 20
-34140
 11
-4850
 21
-34130
  0
LINE
  8
0
 10
-4850
 20
-34130
 11
-4800
 21
-34130
  0
LINE
  8
0
 10
-4800
 20
-34130
 11
-4800
 21
-34140
  0
LINE
  8
0
 10
-4800
 20
-34140
 11
-4850
 21
-34140
  0
LINE
  8
0
 10
-4650
 20
-34140
 11
-4650
 21
-34130
  0
LINE
  8
0
 10
-4650
 20
-34130
 11
-4600
 21
-34130
  0
LINE
  8
0
 10
-4600
 20
-34130
 11
-4600
 21
-34140
  0
LINE
  8
0
 10
-4600
 20
-34140
 11
-4650
 21
-34140
  0
LINE
  8
0
 10
-4550
 20
-34176
 11
-4550
 21
-34166
  0
LINE
  8
0
 10
-4550
 20
-34166
 11
-4500
 21
-34166
  0
LINE
  8
0
 10
-4500
 20
-34166
 11
-4500
 21
-34176
  0
LINE
  8
0
 10
-4500
 20
-34176
 11
-4550
 21
-34176
  0
LINE
  8
0
 10
-4650
 20
-34185
 11
-4650
 21
-34175
  0
LINE
  8
0
 10
-4650
 20
-34175
 11
-4600
 21
-34175
  0
LINE
  8
0
 10
-4600
 20
-34175
 11
-4600
 21
-34185
  0
LINE
  8
0
 10
-4600
 20
-34185
 11
-4650
 21
-34185
  0
LINE
  8
0
 10
-4750
 20
-34200
 11
-4750
 21
-34190
  0
LINE
  8
0
 10
-4750
 20
-34190
 11
-4700
 21
-34190
  0
LINE
  8
0
 10
-4700
 20
-34190
 11
-4700
 21
-34200
  0
LINE
  8
0
 10
-4700
 20
-34200
 11
-4750
 21
-34200
  0
LINE
  8
0
 10
-4550
 20
-34212
 11
-4550
 21
-34202
  0
LINE
  8
0
 10
-4550
 20
-34202
 11
-4500
 21
-34202
  0
LINE
  8
0
 10
-4500
 20
-34202
 11
-4500
 21
-34212
  0
LINE
  8
0
 10
-4500
 20
-34212
 11
-4550
 21
-34212
  0
LINE
  8
0
 10
-4850
 20
-34230
 11
-4850
 21
-34220
  0
LINE
  8
0
 10
-4850
 20
-34220
 11
-4800
 21
-34220
  0
LINE
  8
0
 10
-4800
 20
-34220
 11
-4800
 21
-34230
  0
LINE
  8
0
 10
-4800
 20
-34230
 11
-4850
 21
-34230
  0
LINE
  8
0
 10
-4650
 20
-34230
 11
-4650
 21
-34220
  0
LINE
  8
0
 10
-4650
 20
-34220
 11
-4600
 21
-34220
  0
LINE
  8
0
 10
-4600
 20
-34220
 11
-4600
 21
-34230
  0
LINE
  8
0
 10
-4600
 20
-34230
 11
-4650
 21
-34230
  0
LINE
  8
0
 10
-4550
 20
-34248
 11
-4550
 21
-34238
  0
LINE
  8
0
 10
-4550
 20
-34238
 11
-4500
 21
-34238
  0
LINE
  8
0
 10
-4500
 20
-34238
 11
-4500
 21
-34248
  0
LINE
  8
0
 10
-4500
 20
-34248
 11
-4550
 21
-34248
  0
LINE
  8
0
 10
-4750
 20
-34260
 11
-4750
 21
-34250
  0
LINE
  8
0
 10
-4750
 20
-34250
 11
-4700
 21
-34250
  0
LINE
  8
0
 10
-4700
 20
-34250
 11
-4700
 21
-34260
  0
LINE
  8
0
 10
-4700
 20
-34260
 11
-4750
 21
-34260
  0
LINE
  8
0
 10
-4650
 20
-34275
 11
-4650
 21
-34265
  0
LINE
  8
0
 10
-4650
 20
-34265
 11
-4600
 21
-34265
  0
LINE
  8
0
 10
-4600
 20
-34265
 11
-4600
 21
-34275
  0
LINE
  8
0
 10
-4600
 20
-34275
 11
-4650
 21
-34275
  0
LINE
  8
0
 10
-4550
 20
-34284
 11
-4550
 21
-34274
  0
LINE
  8
0
 10
-4550
 20
-34274
 11
-4500
 21
-34274
  0
LINE
  8
0
 10
-4500
 20
-34274
 11
-4500
 21
-34284
  0
LINE
  8
0
 10
-4500
 20
-34284
 11
-4550
 21
-34284
  0
LINE
  8
0
 10
-4550
 20
-34320
 11
-4550
 21
-34310
  0
LINE
  8
0
 10
-4550
 20
-34310
 11
-4500
 21
-34310
  0
LINE
  8
0
 10
-4500
 20
-34310
 11
-4500
 21
-34320
  0
LINE
  8
0
 10
-4500
 20
-34320
 11
-4550
 21
-34320
  0
LINE
  8
0
 10
-4650
 20
-34320
 11
-4650
 21
-34310
  0
LINE
  8
0
 10
-4650
 20
-34310
 11
-4600
 21
-34310
  0
LINE
  8
0
 10
-4600
 20
-34310
 11
-4600
 21
-34320
  0
LINE
  8
0
 10
-4600
 20
-34320
 11
-4650
 21
-34320
  0
LINE
  8
0
 10
-4750
 20
-34320
 11
-4750
 21
-34310
  0
LINE
  8
0
 10
-4750
 20
-34310
 11
-4700
 21
-34310
  0
LINE
  8
0
 10
-4700
 20
-34310
 11
-4700
 21
-34320
  0
LINE
  8
0
 10
-4700
 20
-34320
 11
-4750
 21
-34320
  0
LINE
  8
0
 10
-4850
 20
-34320
 11
-4850
 21
-34310
  0
LINE
  8
0
 10
-4850
 20
-34310
 11
-4800
 21
-34310
  0
LINE
  8
0
 10
-4800
 20
-34310
 11
-4800
 21
-34320
  0
LINE
  8
0
 10
-4800
 20
-34320
 11
-4850
 21
-34320
  0
LINE
  8
0
 10
-4950
 20
-34320
 11
-4950
 21
-34310
  0
LINE
  8
0
 10
-4950
 20
-34310
 11
-4900
 21
-34310
  0
LINE
  8
0
 10
-4900
 20
-34310
 11
-4900
 21
-34320
  0
LINE
  8
0
 10
-4900
 20
-34320
 11
-4950
 21
-34320
  0
LINE
  8
0
 10
-4550
 20
-34356
 11
-4550
 21
-34346
  0
LINE
  8
0
 10
-4550
 20
-34346
 11
-4500
 21
-34346
  0
LINE
  8
0
 10
-4500
 20
-34346
 11
-4500
 21
-34356
  0
LINE
  8
0
 10
-4500
 20
-34356
 11
-4550
 21
-34356
  0
LINE
  8
0
 10
-4650
 20
-34365
 11
-4650
 21
-34355
  0
LINE
  8
0
 10
-4650
 20
-34355
 11
-4600
 21
-34355
  0
LINE
  8
0
 10
-4600
 20
-34355
 11
-4600
 21
-34365
  0
LINE
  8
0
 10
-4600
 20
-34365
 11
-4650
 21
-34365
  0
LINE
  8
0
 10
-4750
 20
-34380
 11
-4750
 21
-34370
  0
LINE
  8
0
 10
-4750
 20
-34370
 11
-4700
 21
-34370
  0
LINE
  8
0
 10
-4700
 20
-34370
 11
-4700
 21
-34380
  0
LINE
  8
0
 10
-4700
 20
-34380
 11
-4750
 21
-34380
  0
LINE
  8
0
 10
-4550
 20
-34392
 11
-4550
 21
-34382
  0
LINE
  8
0
 10
-4550
 20
-34382
 11
-4500
 21
-34382
  0
LINE
  8
0
 10
-4500
 20
-34382
 11
-4500
 21
-34392
  0
LINE
  8
0
 10
-4500
 20
-34392
 11
-4550
 21
-34392
  0
LINE
  8
0
 10
-4650
 20
-34410
 11
-4650
 21
-34400
  0
LINE
  8
0
 10
-4650
 20
-34400
 11
-4600
 21
-34400
  0
LINE
  8
0
 10
-4600
 20
-34400
 11
-4600
 21
-34410
  0
LINE
  8
0
 10
-4600
 20
-34410
 11
-4650
 21
-34410
  0
LINE
  8
0
 10
-4850
 20
-34410
 11
-4850
 21
-34400
  0
LINE
  8
0
 10
-4850
 20
-34400
 11
-4800
 21
-34400
  0
LINE
  8
0
 10
-4800
 20
-34400
 11
-4800
 21
-34410
  0
LINE
  8
0
 10
-4800
 20
-34410
 11
-4850
 21
-34410
  0
LINE
  8
0
 10
-4550
 20
-34428
 11
-4550
 21
-34418
  0
LINE
  8
0
 10
-4550
 20
-34418
 11
-4500
 21
-34418
  0
LINE
  8
0
 10
-4500
 20
-34418
 11
-4500
 21
-34428
  0
LINE
  8
0
 10
-4500
 20
-34428
 11
-4550
 21
-34428
  0
LINE
  8
0
 10
-4750
 20
-34440
 11
-4750
 21
-34430
  0
LINE
  8
0
 10
-4750
 20
-34430
 11
-4700
 21
-34430
  0
LINE
  8
0
 10
-4700
 20
-34430
 11
-4700
 21
-34440
  0
LINE
  8
0
 10
-4700
 20
-34440
 11
-4750
 21
-34440
  0
LINE
  8
0
 10
-4650
 20
-34455
 11
-4650
 21
-34445
  0
LINE
  8
0
 10
-4650
 20
-34445
 11
-4600
 21
-34445
  0
LINE
  8
0
 10
-4600
 20
-34445
 11
-4600
 21
-34455
  0
LINE
  8
0
 10
-4600
 20
-34455
 11
-4650
 21
-34455
  0
LINE
  8
0
 10
-4550
 20
-34464
 11
-4550
 21
-34454
  0
LINE
  8
0
 10
-4550
 20
-34454
 11
-4500
 21
-34454
  0
LINE
  8
0
 10
-4500
 20
-34454
 11
-4500
 21
-34464
  0
LINE
  8
0
 10
-4500
 20
-34464
 11
-4550
 21
-34464
  0
LINE
  8
0
 10
-4850
 20
-34500
 11
-4850
 21
-34490
  0
LINE
  8
0
 10
-4850
 20
-34490
 11
-4800
 21
-34490
  0
LINE
  8
0
 10
-4800
 20
-34490
 11
-4800
 21
-34500
  0
LINE
  8
0
 10
-4800
 20
-34500
 11
-4850
 21
-34500
  0
LINE
  8
0
 10
-4750
 20
-34500
 11
-4750
 21
-34490
  0
LINE
  8
0
 10
-4750
 20
-34490
 11
-4700
 21
-34490
  0
LINE
  8
0
 10
-4700
 20
-34490
 11
-4700
 21
-34500
  0
LINE
  8
0
 10
-4700
 20
-34500
 11
-4750
 21
-34500
  0
LINE
  8
0
 10
-4650
 20
-34500
 11
-4650
 21
-34490
  0
LINE
  8
0
 10
-4650
 20
-34490
 11
-4600
 21
-34490
  0
LINE
  8
0
 10
-4600
 20
-34490
 11
-4600
 21
-34500
  0
LINE
  8
0
 10
-4600
 20
-34500
 11
-4650
 21
-34500
  0
LINE
  8
0
 10
-4550
 20
-34500
 11
-4550
 21
-34490
  0
LINE
  8
0
 10
-4550
 20
-34490
 11
-4500
 21
-34490
  0
LINE
  8
0
 10
-4500
 20
-34490
 11
-4500
 21
-34500
  0
LINE
  8
0
 10
-4500
 20
-34500
 11
-4550
 21
-34500
  0
LINE
  8
0
 10
-5050
 20
-34500
 11
-5050
 21
-34490
  0
LINE
  8
0
 10
-5050
 20
-34490
 11
-5000
 21
-34490
  0
LINE
  8
0
 10
-5000
 20
-34490
 11
-5000
 21
-34500
  0
LINE
  8
0
 10
-5000
 20
-34500
 11
-5050
 21
-34500
  0
LINE
  8
0
 10
-4950
 20
-34500
 11
-4950
 21
-34490
  0
LINE
  8
0
 10
-4950
 20
-34490
 11
-4900
 21
-34490
  0
LINE
  8
0
 10
-4900
 20
-34490
 11
-4900
 21
-34500
  0
LINE
  8
0
 10
-4900
 20
-34500
 11
-4950
 21
-34500
  0
LINE
  8
0
 10
-4550
 20
-34536
 11
-4550
 21
-34526
  0
LINE
  8
0
 10
-4550
 20
-34526
 11
-4500
 21
-34526
  0
LINE
  8
0
 10
-4500
 20
-34526
 11
-4500
 21
-34536
  0
LINE
  8
0
 10
-4500
 20
-34536
 11
-4550
 21
-34536
  0
LINE
  8
0
 10
-4650
 20
-34545
 11
-4650
 21
-34535
  0
LINE
  8
0
 10
-4650
 20
-34535
 11
-4600
 21
-34535
  0
LINE
  8
0
 10
-4600
 20
-34535
 11
-4600
 21
-34545
  0
LINE
  8
0
 10
-4600
 20
-34545
 11
-4650
 21
-34545
  0
LINE
  8
0
 10
-4750
 20
-34560
 11
-4750
 21
-34550
  0
LINE
  8
0
 10
-4750
 20
-34550
 11
-4700
 21
-34550
  0
LINE
  8
0
 10
-4700
 20
-34550
 11
-4700
 21
-34560
  0
LINE
  8
0
 10
-4700
 20
-34560
 11
-4750
 21
-34560
  0
LINE
  8
0
 10
-4550
 20
-34572
 11
-4550
 21
-34562
  0
LINE
  8
0
 10
-4550
 20
-34562
 11
-4500
 21
-34562
  0
LINE
  8
0
 10
-4500
 20
-34562
 11
-4500
 21
-34572
  0
LINE
  8
0
 10
-4500
 20
-34572
 11
-4550
 21
-34572
  0
LINE
  8
0
 10
-4650
 20
-34590
 11
-4650
 21
-34580
  0
LINE
  8
0
 10
-4650
 20
-34580
 11
-4600
 21
-34580
  0
LINE
  8
0
 10
-4600
 20
-34580
 11
-4600
 21
-34590
  0
LINE
  8
0
 10
-4600
 20
-34590
 11
-4650
 21
-34590
  0
LINE
  8
0
 10
-4850
 20
-34590
 11
-4850
 21
-34580
  0
LINE
  8
0
 10
-4850
 20
-34580
 11
-4800
 21
-34580
  0
LINE
  8
0
 10
-4800
 20
-34580
 11
-4800
 21
-34590
  0
LINE
  8
0
 10
-4800
 20
-34590
 11
-4850
 21
-34590
  0
LINE
  8
0
 10
-4550
 20
-34608
 11
-4550
 21
-34598
  0
LINE
  8
0
 10
-4550
 20
-34598
 11
-4500
 21
-34598
  0
LINE
  8
0
 10
-4500
 20
-34598
 11
-4500
 21
-34608
  0
LINE
  8
0
 10
-4500
 20
-34608
 11
-4550
 21
-34608
  0
LINE
  8
0
 10
-4750
 20
-34620
 11
-4750
 21
-34610
  0
LINE
  8
0
 10
-4750
 20
-34610
 11
-4700
 21
-34610
  0
LINE
  8
0
 10
-4700
 20
-34610
 11
-4700
 21
-34620
  0
LINE
  8
0
 10
-4700
 20
-34620
 11
-4750
 21
-34620
  0
LINE
  8
0
 10
-4650
 20
-34635
 11
-4650
 21
-34625
  0
LINE
  8
0
 10
-4650
 20
-34625
 11
-4600
 21
-34625
  0
LINE
  8
0
 10
-4600
 20
-34625
 11
-4600
 21
-34635
  0
LINE
  8
0
 10
-4600
 20
-34635
 11
-4650
 21
-34635
  0
LINE
  8
0
 10
-4550
 20
-34644
 11
-4550
 21
-34634
  0
LINE
  8
0
 10
-4550
 20
-34634
 11
-4500
 21
-34634
  0
LINE
  8
0
 10
-4500
 20
-34634
 11
-4500
 21
-34644
  0
LINE
  8
0
 10
-4500
 20
-34644
 11
-4550
 21
-34644
  0
LINE
  8
0
 10
-4650
 20
-34680
 11
-4650
 21
-34670
  0
LINE
  8
0
 10
-4650
 20
-34670
 11
-4600
 21
-34670
  0
LINE
  8
0
 10
-4600
 20
-34670
 11
-4600
 21
-34680
  0
LINE
  8
0
 10
-4600
 20
-34680
 11
-4650
 21
-34680
  0
LINE
  8
0
 10
-4750
 20
-34680
 11
-4750
 21
-34670
  0
LINE
  8
0
 10
-4750
 20
-34670
 11
-4700
 21
-34670
  0
LINE
  8
0
 10
-4700
 20
-34670
 11
-4700
 21
-34680
  0
LINE
  8
0
 10
-4700
 20
-34680
 11
-4750
 21
-34680
  0
LINE
  8
0
 10
-4850
 20
-34680
 11
-4850
 21
-34670
  0
LINE
  8
0
 10
-4850
 20
-34670
 11
-4800
 21
-34670
  0
LINE
  8
0
 10
-4800
 20
-34670
 11
-4800
 21
-34680
  0
LINE
  8
0
 10
-4800
 20
-34680
 11
-4850
 21
-34680
  0
LINE
  8
0
 10
-4950
 20
-34680
 11
-4950
 21
-34670
  0
LINE
  8
0
 10
-4950
 20
-34670
 11
-4900
 21
-34670
  0
LINE
  8
0
 10
-4900
 20
-34670
 11
-4900
 21
-34680
  0
LINE
  8
0
 10
-4900
 20
-34680
 11
-4950
 21
-34680
  0
LINE
  8
0
 10
-4550
 20
-34680
 11
-4550
 21
-34670
  0
LINE
  8
0
 10
-4550
 20
-34670
 11
-4500
 21
-34670
  0
LINE
  8
0
 10
-4500
 20
-34670
 11
-4500
 21
-34680
  0
LINE
  8
0
 10
-4500
 20
-34680
 11
-4550
 21
-34680
  0
LINE
  8
0
 10
-4550
 20
-34716
 11
-4550
 21
-34706
  0
LINE
  8
0
 10
-4550
 20
-34706
 11
-4500
 21
-34706
  0
LINE
  8
0
 10
-4500
 20
-34706
 11
-4500
 21
-34716
  0
LINE
  8
0
 10
-4500
 20
-34716
 11
-4550
 21
-34716
  0
LINE
  8
0
 10
-4650
 20
-34725
 11
-4650
 21
-34715
  0
LINE
  8
0
 10
-4650
 20
-34715
 11
-4600
 21
-34715
  0
LINE
  8
0
 10
-4600
 20
-34715
 11
-4600
 21
-34725
  0
LINE
  8
0
 10
-4600
 20
-34725
 11
-4650
 21
-34725
  0
LINE
  8
0
 10
-4750
 20
-34740
 11
-4750
 21
-34730
  0
LINE
  8
0
 10
-4750
 20
-34730
 11
-4700
 21
-34730
  0
LINE
  8
0
 10
-4700
 20
-34730
 11
-4700
 21
-34740
  0
LINE
  8
0
 10
-4700
 20
-34740
 11
-4750
 21
-34740
  0
LINE
  8
0
 10
-4550
 20
-34752
 11
-4550
 21
-34742
  0
LINE
  8
0
 10
-4550
 20
-34742
 11
-4500
 21
-34742
  0
LINE
  8
0
 10
-4500
 20
-34742
 11
-4500
 21
-34752
  0
LINE
  8
0
 10
-4500
 20
-34752
 11
-4550
 21
-34752
  0
LINE
  8
0
 10
-4850
 20
-34770
 11
-4850
 21
-34760
  0
LINE
  8
0
 10
-4850
 20
-34760
 11
-4800
 21
-34760
  0
LINE
  8
0
 10
-4800
 20
-34760
 11
-4800
 21
-34770
  0
LINE
  8
0
 10
-4800
 20
-34770
 11
-4850
 21
-34770
  0
LINE
  8
0
 10
-4650
 20
-34770
 11
-4650
 21
-34760
  0
LINE
  8
0
 10
-4650
 20
-34760
 11
-4600
 21
-34760
  0
LINE
  8
0
 10
-4600
 20
-34760
 11
-4600
 21
-34770
  0
LINE
  8
0
 10
-4600
 20
-34770
 11
-4650
 21
-34770
  0
LINE
  8
0
 10
-4550
 20
-34788
 11
-4550
 21
-34778
  0
LINE
  8
0
 10
-4550
 20
-34778
 11
-4500
 21
-34778
  0
LINE
  8
0
 10
-4500
 20
-34778
 11
-4500
 21
-34788
  0
LINE
  8
0
 10
-4500
 20
-34788
 11
-4550
 21
-34788
  0
LINE
  8
0
 10
-4750
 20
-34800
 11
-4750
 21
-34790
  0
LINE
  8
0
 10
-4750
 20
-34790
 11
-4700
 21
-34790
  0
LINE
  8
0
 10
-4700
 20
-34790
 11
-4700
 21
-34800
  0
LINE
  8
0
 10
-4700
 20
-34800
 11
-4750
 21
-34800
  0
LINE
  8
0
 10
-4650
 20
-34815
 11
-4650
 21
-34805
  0
LINE
  8
0
 10
-4650
 20
-34805
 11
-4600
 21
-34805
  0
LINE
  8
0
 10
-4600
 20
-34805
 11
-4600
 21
-34815
  0
LINE
  8
0
 10
-4600
 20
-34815
 11
-4650
 21
-34815
  0
LINE
  8
0
 10
-4550
 20
-34824
 11
-4550
 21
-34814
  0
LINE
  8
0
 10
-4550
 20
-34814
 11
-4500
 21
-34814
  0
LINE
  8
0
 10
-4500
 20
-34814
 11
-4500
 21
-34824
  0
LINE
  8
0
 10
-4500
 20
-34824
 11
-4550
 21
-34824
  0
LINE
  8
0
 10
-4550
 20
-34860
 11
-4550
 21
-34850
  0
LINE
  8
0
 10
-4550
 20
-34850
 11
-4500
 21
-34850
  0
LINE
  8
0
 10
-4500
 20
-34850
 11
-4500
 21
-34860
  0
LINE
  8
0
 10
-4500
 20
-34860
 11
-4550
 21
-34860
  0
LINE
  8
0
 10
-4750
 20
-34860
 11
-4750
 21
-34850
  0
LINE
  8
0
 10
-4750
 20
-34850
 11
-4700
 21
-34850
  0
LINE
  8
0
 10
-4700
 20
-34850
 11
-4700
 21
-34860
  0
LINE
  8
0
 10
-4700
 20
-34860
 11
-4750
 21
-34860
  0
LINE
  8
0
 10
-4650
 20
-34860
 11
-4650
 21
-34850
  0
LINE
  8
0
 10
-4650
 20
-34850
 11
-4600
 21
-34850
  0
LINE
  8
0
 10
-4600
 20
-34850
 11
-4600
 21
-34860
  0
LINE
  8
0
 10
-4600
 20
-34860
 11
-4650
 21
-34860
  0
LINE
  8
0
 10
-4850
 20
-34860
 11
-4850
 21
-34850
  0
LINE
  8
0
 10
-4850
 20
-34850
 11
-4800
 21
-34850
  0
LINE
  8
0
 10
-4800
 20
-34850
 11
-4800
 21
-34860
  0
LINE
  8
0
 10
-4800
 20
-34860
 11
-4850
 21
-34860
  0
LINE
  8
0
 10
-4550
 20
-34896
 11
-4550
 21
-34886
  0
LINE
  8
0
 10
-4550
 20
-34886
 11
-4500
 21
-34886
  0
LINE
  8
0
 10
-4500
 20
-34886
 11
-4500
 21
-34896
  0
LINE
  8
0
 10
-4500
 20
-34896
 11
-4550
 21
-34896
  0
LINE
  8
0
 10
-4650
 20
-34905
 11
-4650
 21
-34895
  0
LINE
  8
0
 10
-4650
 20
-34895
 11
-4600
 21
-34895
  0
LINE
  8
0
 10
-4600
 20
-34895
 11
-4600
 21
-34905
  0
LINE
  8
0
 10
-4600
 20
-34905
 11
-4650
 21
-34905
  0
LINE
  8
0
 10
-4750
 20
-34920
 11
-4750
 21
-34910
  0
LINE
  8
0
 10
-4750
 20
-34910
 11
-4700
 21
-34910
  0
LINE
  8
0
 10
-4700
 20
-34910
 11
-4700
 21
-34920
  0
LINE
  8
0
 10
-4700
 20
-34920
 11
-4750
 21
-34920
  0
LINE
  8
0
 10
-4550
 20
-34932
 11
-4550
 21
-34922
  0
LINE
  8
0
 10
-4550
 20
-34922
 11
-4500
 21
-34922
  0
LINE
  8
0
 10
-4500
 20
-34922
 11
-4500
 21
-34932
  0
LINE
  8
0
 10
-4500
 20
-34932
 11
-4550
 21
-34932
  0
LINE
  8
0
 10
-4650
 20
-34950
 11
-4650
 21
-34940
  0
LINE
  8
0
 10
-4650
 20
-34940
 11
-4600
 21
-34940
  0
LINE
  8
0
 10
-4600
 20
-34940
 11
-4600
 21
-34950
  0
LINE
  8
0
 10
-4600
 20
-34950
 11
-4650
 21
-34950
  0
LINE
  8
0
 10
-4550
 20
-34968
 11
-4550
 21
-34958
  0
LINE
  8
0
 10
-4550
 20
-34958
 11
-4500
 21
-34958
  0
LINE
  8
0
 10
-4500
 20
-34958
 11
-4500
 21
-34968
  0
LINE
  8
0
 10
-4500
 20
-34968
 11
-4550
 21
-34968
  0
LINE
  8
0
 10
-4750
 20
-34980
 11
-4750
 21
-34970
  0
LINE
  8
0
 10
-4750
 20
-34970
 11
-4700
 21
-34970
  0
LINE
  8
0
 10
-4700
 20
-34970
 11
-4700
 21
-34980
  0
LINE
  8
0
 10
-4700
 20
-34980
 11
-4750
 21
-34980
  0
LINE
  8
0
 10
-4650
 20
-34995
 11
-4650
 21
-34985
  0
LINE
  8
0
 10
-4650
 20
-34985
 11
-4600
 21
-34985
  0
LINE
  8
0
 10
-4600
 20
-34985
 11
-4600
 21
-34995
  0
LINE
  8
0
 10
-4600
 20
-34995
 11
-4650
 21
-34995
  0
ENDSEC
  0
SECTION
  2
OBJECTS
  0
DICTIONARY
  0
ENDSEC
  0
EOF
